<?xml version="1.0" encoding="utf-8" standalone="no"?>
<!DOCTYPE svg PUBLIC "-//W3C//DTD SVG 1.1//EN"
  "http://www.w3.org/Graphics/SVG/1.1/DTD/svg11.dtd">
<!-- Created with matplotlib (https://matplotlib.org/) -->
<svg height="61.908558pt" version="1.1" viewBox="0 0 235.872 61.908558" width="235.872pt" xmlns="http://www.w3.org/2000/svg" xmlns:xlink="http://www.w3.org/1999/xlink">
 <metadata>
  <rdf:RDF xmlns:cc="http://creativecommons.org/ns#" xmlns:dc="http://purl.org/dc/elements/1.1/" xmlns:rdf="http://www.w3.org/1999/02/22-rdf-syntax-ns#">
   <cc:Work>
    <dc:type rdf:resource="http://purl.org/dc/dcmitype/StillImage"/>
    <dc:date>2021-06-06T13:33:58.487580</dc:date>
    <dc:format>image/svg+xml</dc:format>
    <dc:creator>
     <cc:Agent>
      <dc:title>Matplotlib v3.3.2, https://matplotlib.org/</dc:title>
     </cc:Agent>
    </dc:creator>
   </cc:Work>
  </rdf:RDF>
 </metadata>
 <defs>
  <style type="text/css">*{stroke-linecap:butt;stroke-linejoin:round;}</style>
 </defs>
 <g id="figure_1">
  <g id="patch_1">
   <path d="M 0 61.908558 
L 235.872 61.908558 
L 235.872 0 
L 0 0 
z
" style="fill:none;"/>
  </g>
  <g id="axes_1">
   <g id="line2d_1">
    <path clip-path="url(#p3bcefdbeb8)" d="M 78.595069 21.603213 
L 61.9164 4.924544 
" style="fill:none;stroke:#ff8c00;stroke-linecap:square;stroke-width:0.5;"/>
   </g>
   <g id="line2d_2">
    <path clip-path="url(#p3bcefdbeb8)" d="M 61.9164 4.924544 
L 45.237731 21.603213 
" style="fill:none;stroke:#0000ff;stroke-linecap:square;stroke-width:0.5;"/>
   </g>
   <g id="line2d_3">
    <path clip-path="url(#p3bcefdbeb8)" d="M 45.237731 21.603213 
L 61.9164 38.281883 
" style="fill:none;stroke:#ff8c00;stroke-linecap:square;stroke-width:0.5;"/>
   </g>
   <g id="line2d_4">
    <path clip-path="url(#p3bcefdbeb8)" d="M 61.9164 38.281883 
L 78.595069 21.603213 
" style="fill:none;stroke:#0000ff;stroke-linecap:square;stroke-width:0.5;"/>
   </g>
   <g id="line2d_5">
    <path clip-path="url(#p3bcefdbeb8)" d="M 70.255735 13.263879 
L 53.577065 29.942548 
" style="fill:none;stroke:#0000ff;stroke-linecap:square;stroke-width:0.2;"/>
   </g>
   <g id="line2d_6">
    <path clip-path="url(#p3bcefdbeb8)" d="M 53.577065 13.263879 
L 70.255735 29.942548 
" style="fill:none;stroke:#ff8c00;stroke-linecap:square;stroke-width:0.2;"/>
   </g>
   <g id="line2d_7">
    <path clip-path="url(#p3bcefdbeb8)" d="M 57.4938 56.984013 
" style="fill:none;stroke:#1f77b4;stroke-linecap:square;stroke-opacity:0;stroke-width:1.5;"/>
   </g>
   <g id="line2d_8">
    <path clip-path="url(#p3bcefdbeb8)" d="M 119.872669 21.603213 
L 103.194 4.924544 
" style="fill:none;stroke:#ff8c00;stroke-linecap:square;stroke-width:0.5;"/>
   </g>
   <g id="line2d_9">
    <path clip-path="url(#p3bcefdbeb8)" d="M 103.194 4.924544 
L 86.515331 21.603213 
" style="fill:none;stroke:#0000ff;stroke-linecap:square;stroke-width:0.5;"/>
   </g>
   <g id="line2d_10">
    <path clip-path="url(#p3bcefdbeb8)" d="M 86.515331 21.603213 
L 103.194 38.281883 
" style="fill:none;stroke:#ff8c00;stroke-linecap:square;stroke-width:0.5;"/>
   </g>
   <g id="line2d_11">
    <path clip-path="url(#p3bcefdbeb8)" d="M 103.194 38.281883 
L 119.872669 21.603213 
" style="fill:none;stroke:#0000ff;stroke-linecap:square;stroke-width:0.5;"/>
   </g>
   <g id="line2d_12">
    <path clip-path="url(#p3bcefdbeb8)" d="M 111.533335 13.263879 
L 94.854665 29.942548 
" style="fill:none;stroke:#0000ff;stroke-linecap:square;stroke-width:0.2;"/>
   </g>
   <g id="line2d_13">
    <path clip-path="url(#p3bcefdbeb8)" d="M 94.854665 13.263879 
L 111.533335 29.942548 
" style="fill:none;stroke:#ff8c00;stroke-linecap:square;stroke-width:0.2;"/>
   </g>
   <g id="line2d_14">
    <path clip-path="url(#p3bcefdbeb8)" d="M 98.7714 56.984013 
" style="fill:none;stroke:#ff7f0e;stroke-linecap:square;stroke-opacity:0;stroke-width:1.5;"/>
   </g>
   <g id="line2d_15">
    <path clip-path="url(#p3bcefdbeb8)" d="M 161.150269 21.603213 
L 144.4716 4.924544 
" style="fill:none;stroke:#ff8c00;stroke-linecap:square;stroke-width:0.5;"/>
   </g>
   <g id="line2d_16">
    <path clip-path="url(#p3bcefdbeb8)" d="M 144.4716 4.924544 
L 127.792931 21.603213 
" style="fill:none;stroke:#0000ff;stroke-linecap:square;stroke-width:0.5;"/>
   </g>
   <g id="line2d_17">
    <path clip-path="url(#p3bcefdbeb8)" d="M 127.792931 21.603213 
L 144.4716 38.281883 
" style="fill:none;stroke:#ff8c00;stroke-linecap:square;stroke-width:0.5;"/>
   </g>
   <g id="line2d_18">
    <path clip-path="url(#p3bcefdbeb8)" d="M 144.4716 38.281883 
L 161.150269 21.603213 
" style="fill:none;stroke:#0000ff;stroke-linecap:square;stroke-width:0.5;"/>
   </g>
   <g id="line2d_19">
    <path clip-path="url(#p3bcefdbeb8)" d="M 152.810935 13.263879 
L 136.132265 29.942548 
" style="fill:none;stroke:#0000ff;stroke-linecap:square;stroke-width:0.2;"/>
   </g>
   <g id="line2d_20">
    <path clip-path="url(#p3bcefdbeb8)" d="M 136.132265 13.263879 
L 152.810935 29.942548 
" style="fill:none;stroke:#ff8c00;stroke-linecap:square;stroke-width:0.2;"/>
   </g>
   <g id="line2d_21">
    <path clip-path="url(#p3bcefdbeb8)" d="M 140.049 56.984013 
" style="fill:none;stroke:#2ca02c;stroke-linecap:square;stroke-opacity:0;stroke-width:1.5;"/>
   </g>
   <g id="line2d_22">
    <path clip-path="url(#p3bcefdbeb8)" d="M 202.427869 21.603213 
L 185.7492 4.924544 
" style="fill:none;stroke:#ff8c00;stroke-linecap:square;stroke-width:0.5;"/>
   </g>
   <g id="line2d_23">
    <path clip-path="url(#p3bcefdbeb8)" d="M 185.7492 4.924544 
L 169.070531 21.603213 
" style="fill:none;stroke:#0000ff;stroke-linecap:square;stroke-width:0.5;"/>
   </g>
   <g id="line2d_24">
    <path clip-path="url(#p3bcefdbeb8)" d="M 169.070531 21.603213 
L 185.7492 38.281883 
" style="fill:none;stroke:#ff8c00;stroke-linecap:square;stroke-width:0.5;"/>
   </g>
   <g id="line2d_25">
    <path clip-path="url(#p3bcefdbeb8)" d="M 185.7492 38.281883 
L 202.427869 21.603213 
" style="fill:none;stroke:#0000ff;stroke-linecap:square;stroke-width:0.5;"/>
   </g>
   <g id="line2d_26">
    <path clip-path="url(#p3bcefdbeb8)" d="M 194.088535 13.263879 
L 177.409865 29.942548 
" style="fill:none;stroke:#0000ff;stroke-linecap:square;stroke-width:0.2;"/>
   </g>
   <g id="line2d_27">
    <path clip-path="url(#p3bcefdbeb8)" d="M 177.409865 13.263879 
L 194.088535 29.942548 
" style="fill:none;stroke:#ff8c00;stroke-linecap:square;stroke-width:0.2;"/>
   </g>
   <g id="line2d_28">
    <path clip-path="url(#p3bcefdbeb8)" d="M 181.3266 56.984013 
" style="fill:none;stroke:#d62728;stroke-linecap:square;stroke-opacity:0;stroke-width:1.5;"/>
   </g>
   <g id="text_1">
    <!-- $\psi_0$ -->
    <g transform="translate(57.4938 54.884013)scale(0.1 -0.1)">
     <defs>
      <path d="M 24.859375 -1.21875 
Q 13.921875 0.59375 9.625 5.328125 
Q 4.34375 11.140625 6.640625 23 
L 12.796875 54.6875 
L 21.875 54.6875 
L 15.765625 23.34375 
Q 14.0625 14.40625 17.484375 10.6875 
Q 20.515625 7.46875 26.421875 6.78125 
L 35.6875 54.6875 
L 44.625 54.6875 
L 35.359375 6.84375 
Q 41.890625 7.515625 45.75 10.75 
Q 50.734375 14.84375 52.390625 23.390625 
L 58.453125 54.6875 
L 67.53125 54.6875 
L 61.375 23.046875 
Q 58.984375 10.75 51.5625 5.375 
Q 44.875 0.53125 33.796875 -1.171875 
L 29.984375 -20.796875 
L 21.046875 -20.796875 
z
" id="DejaVuSans-Oblique-968"/>
      <path d="M 31.78125 66.40625 
Q 24.171875 66.40625 20.328125 58.90625 
Q 16.5 51.421875 16.5 36.375 
Q 16.5 21.390625 20.328125 13.890625 
Q 24.171875 6.390625 31.78125 6.390625 
Q 39.453125 6.390625 43.28125 13.890625 
Q 47.125 21.390625 47.125 36.375 
Q 47.125 51.421875 43.28125 58.90625 
Q 39.453125 66.40625 31.78125 66.40625 
z
M 31.78125 74.21875 
Q 44.046875 74.21875 50.515625 64.515625 
Q 56.984375 54.828125 56.984375 36.375 
Q 56.984375 17.96875 50.515625 8.265625 
Q 44.046875 -1.421875 31.78125 -1.421875 
Q 19.53125 -1.421875 13.0625 8.265625 
Q 6.59375 17.96875 6.59375 36.375 
Q 6.59375 54.828125 13.0625 64.515625 
Q 19.53125 74.21875 31.78125 74.21875 
z
" id="DejaVuSans-48"/>
     </defs>
     <use transform="translate(0 0.3125)" xlink:href="#DejaVuSans-Oblique-968"/>
     <use transform="translate(65.966797 -16.09375)scale(0.7)" xlink:href="#DejaVuSans-48"/>
    </g>
   </g>
   <g id="text_2">
    <!-- $\psi_{Bell}$ -->
    <g transform="translate(140.049 54.884013)scale(0.1 -0.1)">
     <defs>
      <path d="M 16.890625 72.90625 
L 42.09375 72.90625 
Q 52.34375 72.90625 57.421875 69.09375 
Q 62.5 65.28125 62.5 57.625 
Q 62.5 50.59375 58.125 45.484375 
Q 53.765625 40.375 46.6875 39.3125 
Q 52.734375 37.9375 55.765625 34.078125 
Q 58.796875 30.21875 58.796875 23.78125 
Q 58.796875 12.796875 50.65625 6.390625 
Q 42.53125 0 28.421875 0 
L 2.6875 0 
z
M 19.28125 34.8125 
L 14.109375 8.109375 
L 29.984375 8.109375 
Q 38.921875 8.109375 43.75 12.203125 
Q 48.578125 16.3125 48.578125 23.78125 
Q 48.578125 29.546875 45.375 32.171875 
Q 42.1875 34.8125 35.109375 34.8125 
z
M 25.09375 64.796875 
L 20.796875 42.828125 
L 35.5 42.828125 
Q 43.359375 42.828125 47.78125 46.234375 
Q 52.203125 49.65625 52.203125 55.71875 
Q 52.203125 60.453125 49.21875 62.625 
Q 46.234375 64.796875 39.703125 64.796875 
z
" id="DejaVuSans-Oblique-66"/>
      <path d="M 48.09375 32.234375 
Q 48.25 33.015625 48.3125 33.84375 
Q 48.390625 34.671875 48.390625 35.5 
Q 48.390625 41.453125 44.890625 44.921875 
Q 41.40625 48.390625 35.40625 48.390625 
Q 28.71875 48.390625 23.578125 44.15625 
Q 18.453125 39.9375 15.828125 32.171875 
z
M 55.90625 25.203125 
L 14.109375 25.203125 
Q 13.8125 23.34375 13.71875 22.265625 
Q 13.625 21.1875 13.625 20.40625 
Q 13.625 13.625 17.796875 9.90625 
Q 21.96875 6.203125 29.59375 6.203125 
Q 35.453125 6.203125 40.671875 7.515625 
Q 45.90625 8.84375 50.390625 11.375 
L 48.6875 2.484375 
Q 43.84375 0.53125 38.6875 -0.4375 
Q 33.546875 -1.421875 28.21875 -1.421875 
Q 16.84375 -1.421875 10.71875 4.015625 
Q 4.59375 9.46875 4.59375 19.484375 
Q 4.59375 28.03125 7.640625 35.375 
Q 10.6875 42.71875 16.609375 48.484375 
Q 20.40625 52.09375 25.65625 54.046875 
Q 30.90625 56 36.8125 56 
Q 46.09375 56 51.578125 50.4375 
Q 57.078125 44.875 57.078125 35.5 
Q 57.078125 33.25 56.78125 30.6875 
Q 56.5 28.125 55.90625 25.203125 
z
" id="DejaVuSans-Oblique-101"/>
      <path d="M 18.3125 75.984375 
L 27.296875 75.984375 
L 12.5 0 
L 3.515625 0 
z
" id="DejaVuSans-Oblique-108"/>
     </defs>
     <use transform="translate(0 0.3125)" xlink:href="#DejaVuSans-Oblique-968"/>
     <use transform="translate(65.966797 -16.09375)scale(0.7)" xlink:href="#DejaVuSans-Oblique-66"/>
     <use transform="translate(113.989258 -16.09375)scale(0.7)" xlink:href="#DejaVuSans-Oblique-101"/>
     <use transform="translate(157.055664 -16.09375)scale(0.7)" xlink:href="#DejaVuSans-Oblique-108"/>
     <use transform="translate(176.503906 -16.09375)scale(0.7)" xlink:href="#DejaVuSans-Oblique-108"/>
    </g>
   </g>
   <g id="text_3">
    <!-- $\psi_M$ -->
    <g transform="translate(181.3266 54.884013)scale(0.1 -0.1)">
     <defs>
      <path d="M 16.890625 72.90625 
L 31.6875 72.90625 
L 40.1875 23.78125 
L 68.40625 72.90625 
L 83.59375 72.90625 
L 69.390625 0 
L 59.8125 0 
L 72.21875 63.921875 
L 43.609375 14.015625 
L 33.984375 14.015625 
L 24.703125 64.109375 
L 12.3125 0 
L 2.6875 0 
z
" id="DejaVuSans-Oblique-77"/>
     </defs>
     <use transform="translate(0 0.3125)" xlink:href="#DejaVuSans-Oblique-968"/>
     <use transform="translate(65.966797 -16.09375)scale(0.7)" xlink:href="#DejaVuSans-Oblique-77"/>
    </g>
   </g>
   <g id="PolyCollection_1">
    <defs>
     <path d="M 67.8132 -48.644679 
L 67.8132 -48.644679 
L 67.801084 -49.022488 
L 67.764787 -49.398745 
L 67.704458 -49.771903 
L 67.620344 -50.140429 
L 67.512792 -50.502809 
L 67.382243 -50.857553 
L 67.229233 -51.203205 
L 67.054392 -51.538342 
L 66.858438 -51.861589 
L 66.642176 -52.171617 
L 66.406495 -52.467152 
L 66.152362 -52.74698 
L 65.880824 -53.00995 
L 65.592995 -53.254983 
L 65.290058 -53.481071 
L 64.973257 -53.687285 
L 64.643896 -53.872778 
L 64.303326 -54.036787 
L 63.952949 -54.178639 
L 63.594202 -54.297752 
L 63.228561 -54.393634 
L 62.857529 -54.465892 
L 62.482629 -54.51423 
L 62.105402 -54.538449 
L 61.727398 -54.538449 
L 61.350171 -54.51423 
L 60.975271 -54.465892 
L 60.604239 -54.393634 
L 60.238598 -54.297752 
L 59.879851 -54.178639 
L 59.529474 -54.036787 
L 59.188904 -53.872778 
L 58.859543 -53.687285 
L 58.542742 -53.481071 
L 58.239805 -53.254983 
L 57.951976 -53.00995 
L 57.680438 -52.74698 
L 57.426305 -52.467152 
L 57.190624 -52.171617 
L 56.974362 -51.861589 
L 56.778408 -51.538342 
L 56.603567 -51.203205 
L 56.450557 -50.857553 
L 56.320008 -50.502809 
L 56.212456 -50.140429 
L 56.128342 -49.771903 
L 56.068013 -49.398745 
L 56.031716 -49.022488 
L 56.0196 -48.644679 
L 56.0196 -48.644679 
L 56.0196 -48.644679 
L 56.031716 -48.26687 
L 56.068013 -47.890613 
L 56.128342 -47.517455 
L 56.212456 -47.148929 
L 56.320008 -46.786549 
L 56.450557 -46.431804 
L 56.603567 -46.086153 
L 56.778408 -45.751016 
L 56.974362 -45.427769 
L 57.190624 -45.117741 
L 57.426305 -44.822206 
L 57.680438 -44.542378 
L 57.951976 -44.279408 
L 58.239805 -44.034375 
L 58.542742 -43.808287 
L 58.859543 -43.602073 
L 59.188904 -43.41658 
L 59.529474 -43.252571 
L 59.879851 -43.110718 
L 60.238598 -42.991606 
L 60.604239 -42.895724 
L 60.975271 -42.823465 
L 61.350171 -42.775127 
L 61.727398 -42.750909 
L 62.105402 -42.750909 
L 62.482629 -42.775127 
L 62.857529 -42.823465 
L 63.228561 -42.895724 
L 63.594202 -42.991606 
L 63.952949 -43.110718 
L 64.303326 -43.252571 
L 64.643896 -43.41658 
L 64.973257 -43.602073 
L 65.290058 -43.808287 
L 65.592995 -44.034375 
L 65.880824 -44.279408 
L 66.152362 -44.542378 
L 66.406495 -44.822206 
L 66.642176 -45.117741 
L 66.858438 -45.427769 
L 67.054392 -45.751016 
L 67.229233 -46.086153 
L 67.382243 -46.431804 
L 67.512792 -46.786549 
L 67.620344 -47.148929 
L 67.704458 -47.517455 
L 67.764787 -47.890613 
L 67.801084 -48.26687 
L 67.8132 -48.644679 
z
" id="m2b6cf98381" style="stroke:#000000;stroke-opacity:0.8;"/>
    </defs>
    <g clip-path="url(#p3bcefdbeb8)">
     <use style="fill:#2f1436;fill-opacity:0.8;stroke:#000000;stroke-opacity:0.8;" x="0" xlink:href="#m2b6cf98381" y="61.908558"/>
    </g>
   </g>
   <g id="PolyCollection_2">
    <defs>
     <path d="M 107.363667 -48.644679 
L 107.363667 -48.644679 
L 107.3551 -48.91183 
L 107.329434 -49.177884 
L 107.286775 -49.441747 
L 107.227298 -49.702334 
L 107.151247 -49.958575 
L 107.058934 -50.209417 
L 106.95074 -50.45383 
L 106.827109 -50.690808 
L 106.688548 -50.919378 
L 106.535628 -51.138601 
L 106.368976 -51.347576 
L 106.189278 -51.545444 
L 105.997271 -51.731392 
L 105.793745 -51.904656 
L 105.579536 -52.064524 
L 105.355524 -52.21034 
L 105.122631 -52.341503 
L 104.881812 -52.457475 
L 104.634057 -52.55778 
L 104.380385 -52.642005 
L 104.121838 -52.709804 
L 103.859478 -52.760898 
L 103.594384 -52.795079 
L 103.327644 -52.812204 
L 103.060356 -52.812204 
L 102.793616 -52.795079 
L 102.528522 -52.760898 
L 102.266162 -52.709804 
L 102.007615 -52.642005 
L 101.753943 -52.55778 
L 101.506188 -52.457475 
L 101.265369 -52.341503 
L 101.032476 -52.21034 
L 100.808464 -52.064524 
L 100.594255 -51.904656 
L 100.390729 -51.731392 
L 100.198722 -51.545444 
L 100.019024 -51.347576 
L 99.852372 -51.138601 
L 99.699452 -50.919378 
L 99.560891 -50.690808 
L 99.43726 -50.45383 
L 99.329066 -50.209417 
L 99.236753 -49.958575 
L 99.160702 -49.702334 
L 99.101225 -49.441747 
L 99.058566 -49.177884 
L 99.0329 -48.91183 
L 99.024333 -48.644679 
L 99.024333 -48.644679 
L 99.024333 -48.644679 
L 99.0329 -48.377527 
L 99.058566 -48.111474 
L 99.101225 -47.847611 
L 99.160702 -47.587024 
L 99.236753 -47.330783 
L 99.329066 -47.07994 
L 99.43726 -46.835528 
L 99.560891 -46.59855 
L 99.699452 -46.36998 
L 99.852372 -46.150757 
L 100.019024 -45.941782 
L 100.198722 -45.743914 
L 100.390729 -45.557966 
L 100.594255 -45.384702 
L 100.808464 -45.224834 
L 101.032476 -45.079018 
L 101.265369 -44.947855 
L 101.506188 -44.831883 
L 101.753943 -44.731578 
L 102.007615 -44.647353 
L 102.266162 -44.579554 
L 102.528522 -44.528459 
L 102.793616 -44.494279 
L 103.060356 -44.477154 
L 103.327644 -44.477154 
L 103.594384 -44.494279 
L 103.859478 -44.528459 
L 104.121838 -44.579554 
L 104.380385 -44.647353 
L 104.634057 -44.731578 
L 104.881812 -44.831883 
L 105.122631 -44.947855 
L 105.355524 -45.079018 
L 105.579536 -45.224834 
L 105.793745 -45.384702 
L 105.997271 -45.557966 
L 106.189278 -45.743914 
L 106.368976 -45.941782 
L 106.535628 -46.150757 
L 106.688548 -46.36998 
L 106.827109 -46.59855 
L 106.95074 -46.835528 
L 107.058934 -47.07994 
L 107.151247 -47.330783 
L 107.227298 -47.587024 
L 107.286775 -47.847611 
L 107.329434 -48.111474 
L 107.3551 -48.377527 
L 107.363667 -48.644679 
z
" id="m14e8228e60" style="stroke:#000000;stroke-opacity:0.8;stroke-width:0.707107;"/>
    </defs>
    <g clip-path="url(#p3bcefdbeb8)">
     <use style="fill:#2f1436;fill-opacity:0.8;stroke:#000000;stroke-opacity:0.8;stroke-width:0.707107;" x="0" xlink:href="#m14e8228e60" y="61.908558"/>
    </g>
   </g>
   <g id="PolyCollection_3">
    <defs>
     <path d="M 99.024333 -40.305344 
L 99.024333 -40.305344 
L 99.015766 -40.572496 
L 98.9901 -40.83855 
L 98.94744 -41.102412 
L 98.887963 -41.363 
L 98.811912 -41.619241 
L 98.7196 -41.870083 
L 98.611406 -42.114495 
L 98.487774 -42.351473 
L 98.349214 -42.580043 
L 98.196294 -42.799266 
L 98.029642 -43.008241 
L 97.849943 -43.206109 
L 97.657936 -43.392057 
L 97.45441 -43.565321 
L 97.240202 -43.72519 
L 97.01619 -43.871005 
L 96.783296 -44.002168 
L 96.542477 -44.118141 
L 96.294723 -44.218445 
L 96.041051 -44.30267 
L 95.782504 -44.370469 
L 95.520144 -44.421564 
L 95.25505 -44.455744 
L 94.98831 -44.472869 
L 94.721021 -44.472869 
L 94.454281 -44.455744 
L 94.189187 -44.421564 
L 93.926827 -44.370469 
L 93.66828 -44.30267 
L 93.414608 -44.218445 
L 93.166854 -44.118141 
L 92.926035 -44.002168 
L 92.693141 -43.871005 
L 92.469129 -43.72519 
L 92.25492 -43.565321 
L 92.051394 -43.392057 
L 91.859388 -43.206109 
L 91.679689 -43.008241 
L 91.513037 -42.799266 
L 91.360117 -42.580043 
L 91.221556 -42.351473 
L 91.097925 -42.114495 
L 90.989731 -41.870083 
L 90.897419 -41.619241 
L 90.821368 -41.363 
L 90.76189 -41.102412 
L 90.719231 -40.83855 
L 90.693565 -40.572496 
L 90.684998 -40.305344 
L 90.684998 -40.305344 
L 90.684998 -40.305344 
L 90.693565 -40.038193 
L 90.719231 -39.772139 
L 90.76189 -39.508277 
L 90.821368 -39.247689 
L 90.897419 -38.991448 
L 90.989731 -38.740606 
L 91.097925 -38.496194 
L 91.221556 -38.259215 
L 91.360117 -38.030645 
L 91.513037 -37.811423 
L 91.679689 -37.602448 
L 91.859388 -37.40458 
L 92.051394 -37.218631 
L 92.25492 -37.045367 
L 92.469129 -36.885499 
L 92.693141 -36.739684 
L 92.926035 -36.60852 
L 93.166854 -36.492548 
L 93.414608 -36.392243 
L 93.66828 -36.308018 
L 93.926827 -36.240219 
L 94.189187 -36.189125 
L 94.454281 -36.154945 
L 94.721021 -36.137819 
L 94.98831 -36.137819 
L 95.25505 -36.154945 
L 95.520144 -36.189125 
L 95.782504 -36.240219 
L 96.041051 -36.308018 
L 96.294723 -36.392243 
L 96.542477 -36.492548 
L 96.783296 -36.60852 
L 97.01619 -36.739684 
L 97.240202 -36.885499 
L 97.45441 -37.045367 
L 97.657936 -37.218631 
L 97.849943 -37.40458 
L 98.029642 -37.602448 
L 98.196294 -37.811423 
L 98.349214 -38.030645 
L 98.487774 -38.259215 
L 98.611406 -38.496194 
L 98.7196 -38.740606 
L 98.811912 -38.991448 
L 98.887963 -39.247689 
L 98.94744 -39.508277 
L 98.9901 -39.772139 
L 99.015766 -40.038193 
L 99.024333 -40.305344 
z
" id="md9f1bab581" style="stroke:#000000;stroke-opacity:0.8;stroke-width:0.707107;"/>
    </defs>
    <g clip-path="url(#p3bcefdbeb8)">
     <use style="fill:#2f1436;fill-opacity:0.8;stroke:#000000;stroke-opacity:0.8;stroke-width:0.707107;" x="0" xlink:href="#md9f1bab581" y="61.908558"/>
    </g>
   </g>
   <g id="PolyCollection_4">
    <defs>
     <path d="M 148.641267 -48.644679 
L 148.641267 -48.644679 
L 148.6327 -48.91183 
L 148.607034 -49.177884 
L 148.564375 -49.441747 
L 148.504898 -49.702334 
L 148.428847 -49.958575 
L 148.336534 -50.209417 
L 148.22834 -50.45383 
L 148.104709 -50.690808 
L 147.966148 -50.919378 
L 147.813228 -51.138601 
L 147.646576 -51.347576 
L 147.466878 -51.545444 
L 147.274871 -51.731392 
L 147.071345 -51.904656 
L 146.857136 -52.064524 
L 146.633124 -52.21034 
L 146.400231 -52.341503 
L 146.159412 -52.457475 
L 145.911657 -52.55778 
L 145.657985 -52.642005 
L 145.399438 -52.709804 
L 145.137078 -52.760898 
L 144.871984 -52.795079 
L 144.605244 -52.812204 
L 144.337956 -52.812204 
L 144.071216 -52.795079 
L 143.806122 -52.760898 
L 143.543762 -52.709804 
L 143.285215 -52.642005 
L 143.031543 -52.55778 
L 142.783788 -52.457475 
L 142.542969 -52.341503 
L 142.310076 -52.21034 
L 142.086064 -52.064524 
L 141.871855 -51.904656 
L 141.668329 -51.731392 
L 141.476322 -51.545444 
L 141.296624 -51.347576 
L 141.129972 -51.138601 
L 140.977052 -50.919378 
L 140.838491 -50.690808 
L 140.71486 -50.45383 
L 140.606666 -50.209417 
L 140.514353 -49.958575 
L 140.438302 -49.702334 
L 140.378825 -49.441747 
L 140.336166 -49.177884 
L 140.3105 -48.91183 
L 140.301933 -48.644679 
L 140.301933 -48.644679 
L 140.301933 -48.644679 
L 140.3105 -48.377527 
L 140.336166 -48.111474 
L 140.378825 -47.847611 
L 140.438302 -47.587024 
L 140.514353 -47.330783 
L 140.606666 -47.07994 
L 140.71486 -46.835528 
L 140.838491 -46.59855 
L 140.977052 -46.36998 
L 141.129972 -46.150757 
L 141.296624 -45.941782 
L 141.476322 -45.743914 
L 141.668329 -45.557966 
L 141.871855 -45.384702 
L 142.086064 -45.224834 
L 142.310076 -45.079018 
L 142.542969 -44.947855 
L 142.783788 -44.831883 
L 143.031543 -44.731578 
L 143.285215 -44.647353 
L 143.543762 -44.579554 
L 143.806122 -44.528459 
L 144.071216 -44.494279 
L 144.337956 -44.477154 
L 144.605244 -44.477154 
L 144.871984 -44.494279 
L 145.137078 -44.528459 
L 145.399438 -44.579554 
L 145.657985 -44.647353 
L 145.911657 -44.731578 
L 146.159412 -44.831883 
L 146.400231 -44.947855 
L 146.633124 -45.079018 
L 146.857136 -45.224834 
L 147.071345 -45.384702 
L 147.274871 -45.557966 
L 147.466878 -45.743914 
L 147.646576 -45.941782 
L 147.813228 -46.150757 
L 147.966148 -46.36998 
L 148.104709 -46.59855 
L 148.22834 -46.835528 
L 148.336534 -47.07994 
L 148.428847 -47.330783 
L 148.504898 -47.587024 
L 148.564375 -47.847611 
L 148.607034 -48.111474 
L 148.6327 -48.377527 
L 148.641267 -48.644679 
z
" id="m0d5039dd1a" style="stroke:#000000;stroke-opacity:0.8;stroke-width:0.707107;"/>
    </defs>
    <g clip-path="url(#p3bcefdbeb8)">
     <use style="fill:#2f1436;fill-opacity:0.8;stroke:#000000;stroke-opacity:0.8;stroke-width:0.707107;" x="0" xlink:href="#m0d5039dd1a" y="61.908558"/>
    </g>
   </g>
   <g id="PolyCollection_5">
    <defs>
     <path d="M 148.641267 -31.96601 
L 148.641267 -31.96601 
L 148.6327 -32.233161 
L 148.607034 -32.499215 
L 148.564375 -32.763078 
L 148.504898 -33.023665 
L 148.428847 -33.279906 
L 148.336534 -33.530748 
L 148.22834 -33.775161 
L 148.104709 -34.012139 
L 147.966148 -34.240709 
L 147.813228 -34.459932 
L 147.646576 -34.668907 
L 147.466878 -34.866775 
L 147.274871 -35.052723 
L 147.071345 -35.225987 
L 146.857136 -35.385855 
L 146.633124 -35.531671 
L 146.400231 -35.662834 
L 146.159412 -35.778806 
L 145.911657 -35.879111 
L 145.657985 -35.963336 
L 145.399438 -36.031135 
L 145.137078 -36.082229 
L 144.871984 -36.116409 
L 144.605244 -36.133535 
L 144.337956 -36.133535 
L 144.071216 -36.116409 
L 143.806122 -36.082229 
L 143.543762 -36.031135 
L 143.285215 -35.963336 
L 143.031543 -35.879111 
L 142.783788 -35.778806 
L 142.542969 -35.662834 
L 142.310076 -35.531671 
L 142.086064 -35.385855 
L 141.871855 -35.225987 
L 141.668329 -35.052723 
L 141.476322 -34.866775 
L 141.296624 -34.668907 
L 141.129972 -34.459932 
L 140.977052 -34.240709 
L 140.838491 -34.012139 
L 140.71486 -33.775161 
L 140.606666 -33.530748 
L 140.514353 -33.279906 
L 140.438302 -33.023665 
L 140.378825 -32.763078 
L 140.336166 -32.499215 
L 140.3105 -32.233161 
L 140.301933 -31.96601 
L 140.301933 -31.96601 
L 140.301933 -31.96601 
L 140.3105 -31.698858 
L 140.336166 -31.432805 
L 140.378825 -31.168942 
L 140.438302 -30.908355 
L 140.514353 -30.652113 
L 140.606666 -30.401271 
L 140.71486 -30.156859 
L 140.838491 -29.919881 
L 140.977052 -29.691311 
L 141.129972 -29.472088 
L 141.296624 -29.263113 
L 141.476322 -29.065245 
L 141.668329 -28.879297 
L 141.871855 -28.706033 
L 142.086064 -28.546164 
L 142.310076 -28.400349 
L 142.542969 -28.269186 
L 142.783788 -28.153214 
L 143.031543 -28.052909 
L 143.285215 -27.968684 
L 143.543762 -27.900885 
L 143.806122 -27.84979 
L 144.071216 -27.81561 
L 144.337956 -27.798485 
L 144.605244 -27.798485 
L 144.871984 -27.81561 
L 145.137078 -27.84979 
L 145.399438 -27.900885 
L 145.657985 -27.968684 
L 145.911657 -28.052909 
L 146.159412 -28.153214 
L 146.400231 -28.269186 
L 146.633124 -28.400349 
L 146.857136 -28.546164 
L 147.071345 -28.706033 
L 147.274871 -28.879297 
L 147.466878 -29.065245 
L 147.646576 -29.263113 
L 147.813228 -29.472088 
L 147.966148 -29.691311 
L 148.104709 -29.919881 
L 148.22834 -30.156859 
L 148.336534 -30.401271 
L 148.428847 -30.652113 
L 148.504898 -30.908355 
L 148.564375 -31.168942 
L 148.607034 -31.432805 
L 148.6327 -31.698858 
L 148.641267 -31.96601 
z
" id="m6c9a111fae" style="stroke:#000000;stroke-opacity:0.8;stroke-width:0.707107;"/>
    </defs>
    <g clip-path="url(#p3bcefdbeb8)">
     <use style="fill:#2f1436;fill-opacity:0.8;stroke:#000000;stroke-opacity:0.8;stroke-width:0.707107;" x="0" xlink:href="#m6c9a111fae" y="61.908558"/>
    </g>
   </g>
   <g id="PolyCollection_6">
    <defs>
     <path d="M 191.646 -31.96601 
L 191.646 -31.96601 
L 191.633884 -32.343819 
L 191.597587 -32.720076 
L 191.537258 -33.093234 
L 191.453144 -33.46176 
L 191.345592 -33.82414 
L 191.215042 -34.178884 
L 191.062033 -34.524535 
L 190.887192 -34.859673 
L 190.691238 -35.18292 
L 190.474976 -35.492948 
L 190.239294 -35.788483 
L 189.985162 -36.06831 
L 189.713624 -36.331281 
L 189.425794 -36.576313 
L 189.122857 -36.802401 
L 188.806057 -37.008615 
L 188.476696 -37.194108 
L 188.136126 -37.358118 
L 187.785749 -37.49997 
L 187.427002 -37.619082 
L 187.061361 -37.714964 
L 186.690329 -37.787223 
L 186.315429 -37.835561 
L 185.938202 -37.85978 
L 185.560198 -37.85978 
L 185.182971 -37.835561 
L 184.808071 -37.787223 
L 184.437039 -37.714964 
L 184.071398 -37.619082 
L 183.712651 -37.49997 
L 183.362274 -37.358118 
L 183.021704 -37.194108 
L 182.692343 -37.008615 
L 182.375543 -36.802401 
L 182.072606 -36.576313 
L 181.784776 -36.331281 
L 181.513238 -36.06831 
L 181.259106 -35.788483 
L 181.023424 -35.492948 
L 180.807162 -35.18292 
L 180.611208 -34.859673 
L 180.436367 -34.524535 
L 180.283358 -34.178884 
L 180.152808 -33.82414 
L 180.045256 -33.46176 
L 179.961142 -33.093234 
L 179.900813 -32.720076 
L 179.864516 -32.343819 
L 179.8524 -31.96601 
L 179.8524 -31.96601 
L 179.8524 -31.96601 
L 179.864516 -31.588201 
L 179.900813 -31.211944 
L 179.961142 -30.838786 
L 180.045256 -30.47026 
L 180.152808 -30.10788 
L 180.283358 -29.753135 
L 180.436367 -29.407484 
L 180.611208 -29.072347 
L 180.807162 -28.7491 
L 181.023424 -28.439072 
L 181.259106 -28.143537 
L 181.513238 -27.863709 
L 181.784776 -27.600739 
L 182.072606 -27.355706 
L 182.375543 -27.129618 
L 182.692343 -26.923404 
L 183.021704 -26.737911 
L 183.362274 -26.573902 
L 183.712651 -26.43205 
L 184.071398 -26.312938 
L 184.437039 -26.217055 
L 184.808071 -26.144797 
L 185.182971 -26.096459 
L 185.560198 -26.07224 
L 185.938202 -26.07224 
L 186.315429 -26.096459 
L 186.690329 -26.144797 
L 187.061361 -26.217055 
L 187.427002 -26.312938 
L 187.785749 -26.43205 
L 188.136126 -26.573902 
L 188.476696 -26.737911 
L 188.806057 -26.923404 
L 189.122857 -27.129618 
L 189.425794 -27.355706 
L 189.713624 -27.600739 
L 189.985162 -27.863709 
L 190.239294 -28.143537 
L 190.474976 -28.439072 
L 190.691238 -28.7491 
L 190.887192 -29.072347 
L 191.062033 -29.407484 
L 191.215042 -29.753135 
L 191.345592 -30.10788 
L 191.453144 -30.47026 
L 191.537258 -30.838786 
L 191.597587 -31.211944 
L 191.633884 -31.588201 
L 191.646 -31.96601 
z
" id="m09839dbe21" style="stroke:#000000;stroke-opacity:0.8;stroke-width:1;"/>
    </defs>
    <g clip-path="url(#p3bcefdbeb8)">
     <use style="fill:#2f1436;fill-opacity:0.8;stroke:#000000;stroke-opacity:0.8;stroke-width:1;" x="0" xlink:href="#m09839dbe21" y="61.908558"/>
    </g>
   </g>
   <g id="line2d_29">
    <path clip-path="url(#p3bcefdbeb8)" d="M 61.9164 13.263879 
L 67.8132 13.263879 
" style="fill:none;stroke:#000000;stroke-linecap:square;"/>
   </g>
   <g id="line2d_30">
    <path clip-path="url(#p3bcefdbeb8)" d="M 103.194 13.263879 
L 107.363667 13.263879 
" style="fill:none;stroke:#000000;stroke-linecap:square;stroke-width:0.707107;"/>
   </g>
   <g id="line2d_31">
    <path clip-path="url(#p3bcefdbeb8)" d="M 94.854665 21.603213 
L 99.024333 21.603213 
" style="fill:none;stroke:#000000;stroke-linecap:square;stroke-width:0.707107;"/>
   </g>
   <g id="line2d_32">
    <path clip-path="url(#p3bcefdbeb8)" d="M 144.4716 13.263879 
L 148.641267 13.263879 
" style="fill:none;stroke:#000000;stroke-linecap:square;stroke-width:0.707107;"/>
   </g>
   <g id="line2d_33">
    <path clip-path="url(#p3bcefdbeb8)" d="M 144.4716 29.942548 
L 148.641267 29.942548 
" style="fill:none;stroke:#000000;stroke-linecap:square;stroke-width:0.707107;"/>
   </g>
   <g id="line2d_34">
    <path clip-path="url(#p3bcefdbeb8)" d="M 185.7492 29.942548 
L 191.646 29.942548 
" style="fill:none;stroke:#000000;stroke-linecap:square;stroke-width:1;"/>
   </g>
  </g>
 </g>
 <defs>
  <clipPath id="p3bcefdbeb8">
   <rect height="57.265416" width="218.1816" x="8.8452" y="2.321571"/>
  </clipPath>
 </defs>
</svg>
