<?xml version="1.0" encoding="utf-8" standalone="no"?>
<!DOCTYPE svg PUBLIC "-//W3C//DTD SVG 1.1//EN"
  "http://www.w3.org/Graphics/SVG/1.1/DTD/svg11.dtd">
<!-- Created with matplotlib (https://matplotlib.org/) -->
<svg height="45.50832pt" version="1.1" viewBox="0 0 222.768 45.50832" width="222.768pt" xmlns="http://www.w3.org/2000/svg" xmlns:xlink="http://www.w3.org/1999/xlink">
 <metadata>
  <rdf:RDF xmlns:cc="http://creativecommons.org/ns#" xmlns:dc="http://purl.org/dc/elements/1.1/" xmlns:rdf="http://www.w3.org/1999/02/22-rdf-syntax-ns#">
   <cc:Work>
    <dc:type rdf:resource="http://purl.org/dc/dcmitype/StillImage"/>
    <dc:date>2021-06-06T15:14:15.078524</dc:date>
    <dc:format>image/svg+xml</dc:format>
    <dc:creator>
     <cc:Agent>
      <dc:title>Matplotlib v3.3.2, https://matplotlib.org/</dc:title>
     </cc:Agent>
    </dc:creator>
   </cc:Work>
  </rdf:RDF>
 </metadata>
 <defs>
  <style type="text/css">*{stroke-linecap:butt;stroke-linejoin:round;}</style>
 </defs>
 <g id="figure_1">
  <g id="patch_1">
   <path d="M 0 45.50832 
L 222.768 45.50832 
L 222.768 0 
L 0 0 
z
" style="fill:#ffffff;"/>
  </g>
  <g id="axes_1">
   <g id="LineCollection_1">
    <path clip-path="url(#p2d31c09a47)" d="M 84.89052 15.39486 
L 96.6654 15.39486 
" style="fill:none;stroke:#0000ff;stroke-width:0.2;"/>
   </g>
   <g id="LineCollection_2">
    <path clip-path="url(#p2d31c09a47)" d="M 126.1026 15.39486 
L 137.87748 15.39486 
" style="fill:none;stroke:#0000ff;stroke-width:0.2;"/>
   </g>
   <g id="LineCollection_3">
    <path clip-path="url(#p2d31c09a47)" d="M 167.31468 15.39486 
L 179.08956 15.39486 
" style="fill:none;stroke:#0000ff;stroke-width:0.2;"/>
   </g>
   <g id="line2d_1">
    <path clip-path="url(#p2d31c09a47)" d="M 84.89052 3.61998 
L 96.6654 3.61998 
" style="fill:none;stroke:#0000ff;stroke-linecap:square;stroke-width:0.5;"/>
   </g>
   <g id="line2d_2">
    <path clip-path="url(#p2d31c09a47)" d="M 96.6654 3.61998 
L 96.6654 27.16974 
" style="fill:none;stroke:#0000ff;stroke-linecap:square;stroke-width:0.5;"/>
   </g>
   <g id="line2d_3">
    <path clip-path="url(#p2d31c09a47)" d="M 96.6654 27.16974 
L 84.89052 27.16974 
" style="fill:none;stroke:#0000ff;stroke-linecap:square;stroke-width:0.5;"/>
   </g>
   <g id="line2d_4">
    <path clip-path="url(#p2d31c09a47)" d="M 84.89052 27.16974 
L 84.89052 3.61998 
" style="fill:none;stroke:#0000ff;stroke-linecap:square;stroke-width:0.5;"/>
   </g>
   <g id="line2d_5">
    <path clip-path="url(#p2d31c09a47)" d="M 86.36238 41.88834 
" style="fill:none;stroke:#1f77b4;stroke-linecap:square;stroke-opacity:0;stroke-width:1.5;"/>
   </g>
   <g id="line2d_6">
    <path clip-path="url(#p2d31c09a47)" d="M 126.1026 3.61998 
L 137.87748 3.61998 
" style="fill:none;stroke:#0000ff;stroke-linecap:square;stroke-width:0.5;"/>
   </g>
   <g id="line2d_7">
    <path clip-path="url(#p2d31c09a47)" d="M 137.87748 3.61998 
L 137.87748 27.16974 
" style="fill:none;stroke:#0000ff;stroke-linecap:square;stroke-width:0.5;"/>
   </g>
   <g id="line2d_8">
    <path clip-path="url(#p2d31c09a47)" d="M 137.87748 27.16974 
L 126.1026 27.16974 
" style="fill:none;stroke:#0000ff;stroke-linecap:square;stroke-width:0.5;"/>
   </g>
   <g id="line2d_9">
    <path clip-path="url(#p2d31c09a47)" d="M 126.1026 27.16974 
L 126.1026 3.61998 
" style="fill:none;stroke:#0000ff;stroke-linecap:square;stroke-width:0.5;"/>
   </g>
   <g id="line2d_10">
    <path clip-path="url(#p2d31c09a47)" d="M 127.57446 41.88834 
" style="fill:none;stroke:#ff7f0e;stroke-linecap:square;stroke-opacity:0;stroke-width:1.5;"/>
   </g>
   <g id="line2d_11">
    <path clip-path="url(#p2d31c09a47)" d="M 167.31468 3.61998 
L 179.08956 3.61998 
" style="fill:none;stroke:#0000ff;stroke-linecap:square;stroke-width:0.5;"/>
   </g>
   <g id="line2d_12">
    <path clip-path="url(#p2d31c09a47)" d="M 179.08956 3.61998 
L 179.08956 27.16974 
" style="fill:none;stroke:#0000ff;stroke-linecap:square;stroke-width:0.5;"/>
   </g>
   <g id="line2d_13">
    <path clip-path="url(#p2d31c09a47)" d="M 179.08956 27.16974 
L 167.31468 27.16974 
" style="fill:none;stroke:#0000ff;stroke-linecap:square;stroke-width:0.5;"/>
   </g>
   <g id="line2d_14">
    <path clip-path="url(#p2d31c09a47)" d="M 167.31468 27.16974 
L 167.31468 3.61998 
" style="fill:none;stroke:#0000ff;stroke-linecap:square;stroke-width:0.5;"/>
   </g>
   <g id="line2d_15">
    <path clip-path="url(#p2d31c09a47)" d="M 168.78654 41.88834 
" style="fill:none;stroke:#2ca02c;stroke-linecap:square;stroke-opacity:0;stroke-width:1.5;"/>
   </g>
   <g id="text_1">
    <!-- $\psi_0$ -->
    <g transform="translate(86.36238 39.78834)scale(0.1 -0.1)">
     <defs>
      <path d="M 24.859375 -1.21875 
Q 13.921875 0.59375 9.625 5.328125 
Q 4.34375 11.140625 6.640625 23 
L 12.796875 54.6875 
L 21.875 54.6875 
L 15.765625 23.34375 
Q 14.0625 14.40625 17.484375 10.6875 
Q 20.515625 7.46875 26.421875 6.78125 
L 35.6875 54.6875 
L 44.625 54.6875 
L 35.359375 6.84375 
Q 41.890625 7.515625 45.75 10.75 
Q 50.734375 14.84375 52.390625 23.390625 
L 58.453125 54.6875 
L 67.53125 54.6875 
L 61.375 23.046875 
Q 58.984375 10.75 51.5625 5.375 
Q 44.875 0.53125 33.796875 -1.171875 
L 29.984375 -20.796875 
L 21.046875 -20.796875 
z
" id="DejaVuSans-Oblique-968"/>
      <path d="M 31.78125 66.40625 
Q 24.171875 66.40625 20.328125 58.90625 
Q 16.5 51.421875 16.5 36.375 
Q 16.5 21.390625 20.328125 13.890625 
Q 24.171875 6.390625 31.78125 6.390625 
Q 39.453125 6.390625 43.28125 13.890625 
Q 47.125 21.390625 47.125 36.375 
Q 47.125 51.421875 43.28125 58.90625 
Q 39.453125 66.40625 31.78125 66.40625 
z
M 31.78125 74.21875 
Q 44.046875 74.21875 50.515625 64.515625 
Q 56.984375 54.828125 56.984375 36.375 
Q 56.984375 17.96875 50.515625 8.265625 
Q 44.046875 -1.421875 31.78125 -1.421875 
Q 19.53125 -1.421875 13.0625 8.265625 
Q 6.59375 17.96875 6.59375 36.375 
Q 6.59375 54.828125 13.0625 64.515625 
Q 19.53125 74.21875 31.78125 74.21875 
z
" id="DejaVuSans-48"/>
     </defs>
     <use transform="translate(0 0.3125)" xlink:href="#DejaVuSans-Oblique-968"/>
     <use transform="translate(65.966797 -16.09375)scale(0.7)" xlink:href="#DejaVuSans-48"/>
    </g>
   </g>
   <g id="text_2">
    <!-- $\psi_M$ -->
    <g transform="translate(168.78654 39.78834)scale(0.1 -0.1)">
     <defs>
      <path d="M 16.890625 72.90625 
L 31.6875 72.90625 
L 40.1875 23.78125 
L 68.40625 72.90625 
L 83.59375 72.90625 
L 69.390625 0 
L 59.8125 0 
L 72.21875 63.921875 
L 43.609375 14.015625 
L 33.984375 14.015625 
L 24.703125 64.109375 
L 12.3125 0 
L 2.6875 0 
z
" id="DejaVuSans-Oblique-77"/>
     </defs>
     <use transform="translate(0 0.3125)" xlink:href="#DejaVuSans-Oblique-968"/>
     <use transform="translate(65.966797 -16.09375)scale(0.7)" xlink:href="#DejaVuSans-Oblique-77"/>
    </g>
   </g>
   <g id="PolyCollection_1">
    <defs>
     <path d="M 96.6654 -36.0009 
L 96.6654 -36.0009 
L 96.653304 -36.37811 
L 96.617064 -36.753769 
L 96.556831 -37.126335 
L 96.47285 -37.494276 
L 96.365469 -37.856081 
L 96.235127 -38.210262 
L 96.08236 -38.555364 
L 95.907797 -38.88997 
L 95.712153 -39.212704 
L 95.496235 -39.52224 
L 95.260927 -39.817306 
L 95.007199 -40.096689 
L 94.736091 -40.359242 
L 94.448719 -40.603886 
L 94.146263 -40.829615 
L 93.829965 -41.035502 
L 93.501126 -41.2207 
L 93.161098 -41.384449 
L 92.811276 -41.526077 
L 92.453099 -41.644999 
L 92.088039 -41.74073 
L 91.717595 -41.812874 
L 91.34329 -41.861135 
L 90.966662 -41.885315 
L 90.589258 -41.885315 
L 90.21263 -41.861135 
L 89.838325 -41.812874 
L 89.467881 -41.74073 
L 89.102821 -41.644999 
L 88.744644 -41.526077 
L 88.394822 -41.384449 
L 88.054794 -41.2207 
L 87.725955 -41.035502 
L 87.409657 -40.829615 
L 87.107201 -40.603886 
L 86.819829 -40.359242 
L 86.548721 -40.096689 
L 86.294993 -39.817306 
L 86.059685 -39.52224 
L 85.843767 -39.212704 
L 85.648123 -38.88997 
L 85.47356 -38.555364 
L 85.320793 -38.210262 
L 85.190451 -37.856081 
L 85.08307 -37.494276 
L 84.999089 -37.126335 
L 84.938856 -36.753769 
L 84.902616 -36.37811 
L 84.89052 -36.0009 
L 84.89052 -36.0009 
L 84.89052 -36.0009 
L 84.902616 -35.62369 
L 84.938856 -35.248031 
L 84.999089 -34.875465 
L 85.08307 -34.507524 
L 85.190451 -34.145719 
L 85.320793 -33.791538 
L 85.47356 -33.446436 
L 85.648123 -33.11183 
L 85.843767 -32.789096 
L 86.059685 -32.47956 
L 86.294993 -32.184494 
L 86.548721 -31.905111 
L 86.819829 -31.642558 
L 87.107201 -31.397914 
L 87.409657 -31.172185 
L 87.725955 -30.966298 
L 88.054794 -30.7811 
L 88.394822 -30.617351 
L 88.744644 -30.475723 
L 89.102821 -30.356801 
L 89.467881 -30.26107 
L 89.838325 -30.188926 
L 90.21263 -30.140665 
L 90.589258 -30.116485 
L 90.966662 -30.116485 
L 91.34329 -30.140665 
L 91.717595 -30.188926 
L 92.088039 -30.26107 
L 92.453099 -30.356801 
L 92.811276 -30.475723 
L 93.161098 -30.617351 
L 93.501126 -30.7811 
L 93.829965 -30.966298 
L 94.146263 -31.172185 
L 94.448719 -31.397914 
L 94.736091 -31.642558 
L 95.007199 -31.905111 
L 95.260927 -32.184494 
L 95.496235 -32.47956 
L 95.712153 -32.789096 
L 95.907797 -33.11183 
L 96.08236 -33.446436 
L 96.235127 -33.791538 
L 96.365469 -34.145719 
L 96.47285 -34.507524 
L 96.556831 -34.875465 
L 96.617064 -35.248031 
L 96.653304 -35.62369 
L 96.6654 -36.0009 
z
" id="mf08695415a" style="stroke:#000000;stroke-opacity:0.8;"/>
    </defs>
    <g clip-path="url(#p2d31c09a47)">
     <use style="fill:#2f1436;fill-opacity:0.8;stroke:#000000;stroke-opacity:0.8;" x="0" xlink:href="#mf08695415a" y="45.50832"/>
    </g>
   </g>
   <g id="PolyCollection_2">
    <defs>
     <path d="M 136.153089 -36.0009 
L 136.153089 -36.0009 
L 136.144535 -36.267627 
L 136.11891 -36.533259 
L 136.076319 -36.796703 
L 136.016936 -37.056876 
L 135.941005 -37.312711 
L 135.84884 -37.563155 
L 135.740817 -37.807179 
L 135.617382 -38.043781 
L 135.479042 -38.271988 
L 135.326364 -38.490863 
L 135.159977 -38.699506 
L 134.980563 -38.89706 
L 134.788861 -39.082713 
L 134.585658 -39.255703 
L 134.37179 -39.415317 
L 134.148133 -39.560901 
L 133.915609 -39.691856 
L 133.675173 -39.807644 
L 133.427812 -39.90779 
L 133.174542 -39.991881 
L 132.916405 -40.059572 
L 132.654462 -40.110586 
L 132.389789 -40.144712 
L 132.123472 -40.16181 
L 131.856608 -40.16181 
L 131.590291 -40.144712 
L 131.325618 -40.110586 
L 131.063675 -40.059572 
L 130.805538 -39.991881 
L 130.552268 -39.90779 
L 130.304907 -39.807644 
L 130.064471 -39.691856 
L 129.831947 -39.560901 
L 129.60829 -39.415317 
L 129.394422 -39.255703 
L 129.191219 -39.082713 
L 128.999517 -38.89706 
L 128.820103 -38.699506 
L 128.653716 -38.490863 
L 128.501038 -38.271988 
L 128.362698 -38.043781 
L 128.239263 -37.807179 
L 128.13124 -37.563155 
L 128.039075 -37.312711 
L 127.963144 -37.056876 
L 127.903761 -36.796703 
L 127.86117 -36.533259 
L 127.835545 -36.267627 
L 127.826991 -36.0009 
L 127.826991 -36.0009 
L 127.826991 -36.0009 
L 127.835545 -35.734173 
L 127.86117 -35.468541 
L 127.903761 -35.205097 
L 127.963144 -34.944924 
L 128.039075 -34.689089 
L 128.13124 -34.438645 
L 128.239263 -34.194621 
L 128.362698 -33.958019 
L 128.501038 -33.729812 
L 128.653716 -33.510937 
L 128.820103 -33.302294 
L 128.999517 -33.10474 
L 129.191219 -32.919087 
L 129.394422 -32.746097 
L 129.60829 -32.586483 
L 129.831947 -32.440899 
L 130.064471 -32.309944 
L 130.304907 -32.194156 
L 130.552268 -32.09401 
L 130.805538 -32.009919 
L 131.063675 -31.942228 
L 131.325618 -31.891214 
L 131.590291 -31.857088 
L 131.856608 -31.83999 
L 132.123472 -31.83999 
L 132.389789 -31.857088 
L 132.654462 -31.891214 
L 132.916405 -31.942228 
L 133.174542 -32.009919 
L 133.427812 -32.09401 
L 133.675173 -32.194156 
L 133.915609 -32.309944 
L 134.148133 -32.440899 
L 134.37179 -32.586483 
L 134.585658 -32.746097 
L 134.788861 -32.919087 
L 134.980563 -33.10474 
L 135.159977 -33.302294 
L 135.326364 -33.510937 
L 135.479042 -33.729812 
L 135.617382 -33.958019 
L 135.740817 -34.194621 
L 135.84884 -34.438645 
L 135.941005 -34.689089 
L 136.016936 -34.944924 
L 136.076319 -35.205097 
L 136.11891 -35.468541 
L 136.144535 -35.734173 
L 136.153089 -36.0009 
z
" id="mc8432ae131" style="stroke:#000000;stroke-opacity:0.8;stroke-width:0.707107;"/>
    </defs>
    <g clip-path="url(#p2d31c09a47)">
     <use style="fill:#2f1436;fill-opacity:0.8;stroke:#000000;stroke-opacity:0.8;stroke-width:0.707107;" x="0" xlink:href="#mc8432ae131" y="45.50832"/>
    </g>
   </g>
   <g id="PolyCollection_3">
    <defs>
     <path d="M 136.153089 -24.22602 
L 136.153089 -24.22602 
L 136.144535 -24.492747 
L 136.11891 -24.758379 
L 136.076319 -25.021823 
L 136.016936 -25.281996 
L 135.941005 -25.537831 
L 135.84884 -25.788275 
L 135.740817 -26.032299 
L 135.617382 -26.268901 
L 135.479042 -26.497108 
L 135.326364 -26.715983 
L 135.159977 -26.924626 
L 134.980563 -27.12218 
L 134.788861 -27.307833 
L 134.585658 -27.480823 
L 134.37179 -27.640437 
L 134.148133 -27.786021 
L 133.915609 -27.916976 
L 133.675173 -28.032764 
L 133.427812 -28.13291 
L 133.174542 -28.217001 
L 132.916405 -28.284692 
L 132.654462 -28.335706 
L 132.389789 -28.369832 
L 132.123472 -28.38693 
L 131.856608 -28.38693 
L 131.590291 -28.369832 
L 131.325618 -28.335706 
L 131.063675 -28.284692 
L 130.805538 -28.217001 
L 130.552268 -28.13291 
L 130.304907 -28.032764 
L 130.064471 -27.916976 
L 129.831947 -27.786021 
L 129.60829 -27.640437 
L 129.394422 -27.480823 
L 129.191219 -27.307833 
L 128.999517 -27.12218 
L 128.820103 -26.924626 
L 128.653716 -26.715983 
L 128.501038 -26.497108 
L 128.362698 -26.268901 
L 128.239263 -26.032299 
L 128.13124 -25.788275 
L 128.039075 -25.537831 
L 127.963144 -25.281996 
L 127.903761 -25.021823 
L 127.86117 -24.758379 
L 127.835545 -24.492747 
L 127.826991 -24.22602 
L 127.826991 -24.22602 
L 127.826991 -24.22602 
L 127.835545 -23.959293 
L 127.86117 -23.693661 
L 127.903761 -23.430217 
L 127.963144 -23.170044 
L 128.039075 -22.914209 
L 128.13124 -22.663765 
L 128.239263 -22.419741 
L 128.362698 -22.183139 
L 128.501038 -21.954932 
L 128.653716 -21.736057 
L 128.820103 -21.527414 
L 128.999517 -21.32986 
L 129.191219 -21.144207 
L 129.394422 -20.971217 
L 129.60829 -20.811603 
L 129.831947 -20.666019 
L 130.064471 -20.535064 
L 130.304907 -20.419276 
L 130.552268 -20.31913 
L 130.805538 -20.235039 
L 131.063675 -20.167348 
L 131.325618 -20.116334 
L 131.590291 -20.082208 
L 131.856608 -20.06511 
L 132.123472 -20.06511 
L 132.389789 -20.082208 
L 132.654462 -20.116334 
L 132.916405 -20.167348 
L 133.174542 -20.235039 
L 133.427812 -20.31913 
L 133.675173 -20.419276 
L 133.915609 -20.535064 
L 134.148133 -20.666019 
L 134.37179 -20.811603 
L 134.585658 -20.971217 
L 134.788861 -21.144207 
L 134.980563 -21.32986 
L 135.159977 -21.527414 
L 135.326364 -21.736057 
L 135.479042 -21.954932 
L 135.617382 -22.183139 
L 135.740817 -22.419741 
L 135.84884 -22.663765 
L 135.941005 -22.914209 
L 136.016936 -23.170044 
L 136.076319 -23.430217 
L 136.11891 -23.693661 
L 136.144535 -23.959293 
L 136.153089 -24.22602 
z
" id="m6417f047f2" style="stroke:#000000;stroke-opacity:0.8;stroke-width:0.707107;"/>
    </defs>
    <g clip-path="url(#p2d31c09a47)">
     <use style="fill:#2f1436;fill-opacity:0.8;stroke:#000000;stroke-opacity:0.8;stroke-width:0.707107;" x="0" xlink:href="#m6417f047f2" y="45.50832"/>
    </g>
   </g>
   <g id="PolyCollection_4">
    <defs>
     <path d="M 179.08956 -24.22602 
L 179.08956 -24.22602 
L 179.077463 -24.60323 
L 179.041224 -24.978889 
L 178.98099 -25.351455 
L 178.89701 -25.719396 
L 178.789628 -26.081201 
L 178.659286 -26.435382 
L 178.50652 -26.780484 
L 178.331956 -27.11509 
L 178.136313 -27.437824 
L 177.920394 -27.74736 
L 177.685087 -28.042426 
L 177.431358 -28.321809 
L 177.160251 -28.584362 
L 176.872879 -28.829006 
L 176.570422 -29.054735 
L 176.254125 -29.260621 
L 175.925286 -29.44582 
L 175.585258 -29.609569 
L 175.235436 -29.751196 
L 174.877259 -29.870119 
L 174.512199 -29.965849 
L 174.141755 -30.037993 
L 173.76745 -30.086254 
L 173.390822 -30.110435 
L 173.013418 -30.110435 
L 172.63679 -30.086254 
L 172.262485 -30.037993 
L 171.892041 -29.965849 
L 171.526981 -29.870119 
L 171.168804 -29.751196 
L 170.818982 -29.609569 
L 170.478954 -29.44582 
L 170.150115 -29.260621 
L 169.833818 -29.054735 
L 169.531361 -28.829006 
L 169.243989 -28.584362 
L 168.972882 -28.321809 
L 168.719153 -28.042426 
L 168.483846 -27.74736 
L 168.267927 -27.437824 
L 168.072284 -27.11509 
L 167.89772 -26.780484 
L 167.744954 -26.435382 
L 167.614612 -26.081201 
L 167.50723 -25.719396 
L 167.42325 -25.351455 
L 167.363016 -24.978889 
L 167.326777 -24.60323 
L 167.31468 -24.22602 
L 167.31468 -24.22602 
L 167.31468 -24.22602 
L 167.326777 -23.84881 
L 167.363016 -23.473151 
L 167.42325 -23.100585 
L 167.50723 -22.732644 
L 167.614612 -22.370839 
L 167.744954 -22.016658 
L 167.89772 -21.671556 
L 168.072284 -21.33695 
L 168.267927 -21.014216 
L 168.483846 -20.70468 
L 168.719153 -20.409614 
L 168.972882 -20.130231 
L 169.243989 -19.867678 
L 169.531361 -19.623034 
L 169.833818 -19.397305 
L 170.150115 -19.191419 
L 170.478954 -19.00622 
L 170.818982 -18.842471 
L 171.168804 -18.700844 
L 171.526981 -18.581921 
L 171.892041 -18.486191 
L 172.262485 -18.414047 
L 172.63679 -18.365786 
L 173.013418 -18.341605 
L 173.390822 -18.341605 
L 173.76745 -18.365786 
L 174.141755 -18.414047 
L 174.512199 -18.486191 
L 174.877259 -18.581921 
L 175.235436 -18.700844 
L 175.585258 -18.842471 
L 175.925286 -19.00622 
L 176.254125 -19.191419 
L 176.570422 -19.397305 
L 176.872879 -19.623034 
L 177.160251 -19.867678 
L 177.431358 -20.130231 
L 177.685087 -20.409614 
L 177.920394 -20.70468 
L 178.136313 -21.014216 
L 178.331956 -21.33695 
L 178.50652 -21.671556 
L 178.659286 -22.016658 
L 178.789628 -22.370839 
L 178.89701 -22.732644 
L 178.98099 -23.100585 
L 179.041224 -23.473151 
L 179.077463 -23.84881 
L 179.08956 -24.22602 
z
" id="mb8ec88ee94" style="stroke:#000000;stroke-opacity:0.8;stroke-width:1;"/>
    </defs>
    <g clip-path="url(#p2d31c09a47)">
     <use style="fill:#2f1436;fill-opacity:0.8;stroke:#000000;stroke-opacity:0.8;stroke-width:1;" x="0" xlink:href="#mb8ec88ee94" y="45.50832"/>
    </g>
   </g>
   <g id="line2d_16">
    <path clip-path="url(#p2d31c09a47)" d="M 90.77796 9.50742 
L 96.6654 9.50742 
" style="fill:none;stroke:#000000;stroke-linecap:square;"/>
   </g>
   <g id="line2d_17">
    <path clip-path="url(#p2d31c09a47)" d="M 131.99004 9.50742 
L 136.153089 9.50742 
" style="fill:none;stroke:#000000;stroke-linecap:square;stroke-width:0.707107;"/>
   </g>
   <g id="line2d_18">
    <path clip-path="url(#p2d31c09a47)" d="M 131.99004 21.2823 
L 136.153089 21.2823 
" style="fill:none;stroke:#000000;stroke-linecap:square;stroke-width:0.707107;"/>
   </g>
   <g id="line2d_19">
    <path clip-path="url(#p2d31c09a47)" d="M 173.20212 21.2823 
L 179.08956 21.2823 
" style="fill:none;stroke:#000000;stroke-linecap:square;stroke-width:1;"/>
   </g>
  </g>
 </g>
 <defs>
  <clipPath id="p2d31c09a47">
   <rect height="42.095196" width="206.0604" x="8.3538" y="1.706562"/>
  </clipPath>
 </defs>
</svg>
