<?xml version="1.0" encoding="utf-8" standalone="no"?>
<!DOCTYPE svg PUBLIC "-//W3C//DTD SVG 1.1//EN"
  "http://www.w3.org/Graphics/SVG/1.1/DTD/svg11.dtd">
<!-- Created with matplotlib (https://matplotlib.org/) -->
<svg height="75.514834pt" version="1.1" viewBox="0 0 311.04 75.514834" width="311.04pt" xmlns="http://www.w3.org/2000/svg" xmlns:xlink="http://www.w3.org/1999/xlink">
 <metadata>
  <rdf:RDF xmlns:cc="http://creativecommons.org/ns#" xmlns:dc="http://purl.org/dc/elements/1.1/" xmlns:rdf="http://www.w3.org/1999/02/22-rdf-syntax-ns#">
   <cc:Work>
    <dc:type rdf:resource="http://purl.org/dc/dcmitype/StillImage"/>
    <dc:date>2021-05-31T13:10:05.863493</dc:date>
    <dc:format>image/svg+xml</dc:format>
    <dc:creator>
     <cc:Agent>
      <dc:title>Matplotlib v3.3.2, https://matplotlib.org/</dc:title>
     </cc:Agent>
    </dc:creator>
   </cc:Work>
  </rdf:RDF>
 </metadata>
 <defs>
  <style type="text/css">*{stroke-linecap:butt;stroke-linejoin:round;}</style>
 </defs>
 <g id="figure_1">
  <g id="patch_1">
   <path d="M 0 75.514834 
L 311.04 75.514834 
L 311.04 0 
L 0 0 
z
" style="fill:none;"/>
  </g>
  <g id="axes_1">
   <g id="line2d_1">
    <path clip-path="url(#p5b7c82e4f4)" d="M 129.046316 28.258668 
L 112.44096 11.653312 
" style="fill:none;stroke:#ff8c00;stroke-linecap:square;stroke-width:0.5;"/>
   </g>
   <g id="line2d_2">
    <path clip-path="url(#p5b7c82e4f4)" d="M 112.44096 11.653312 
L 95.835604 28.258668 
" style="fill:none;stroke:#0000ff;stroke-linecap:square;stroke-width:0.5;"/>
   </g>
   <g id="line2d_3">
    <path clip-path="url(#p5b7c82e4f4)" d="M 95.835604 28.258668 
L 112.44096 44.864024 
" style="fill:none;stroke:#ff8c00;stroke-linecap:square;stroke-width:0.5;"/>
   </g>
   <g id="line2d_4">
    <path clip-path="url(#p5b7c82e4f4)" d="M 112.44096 44.864024 
L 129.046316 28.258668 
" style="fill:none;stroke:#0000ff;stroke-linecap:square;stroke-width:0.5;"/>
   </g>
   <g id="line2d_5">
    <path clip-path="url(#p5b7c82e4f4)" d="M 120.743638 19.95599 
L 104.138282 36.561346 
" style="fill:none;stroke:#0000ff;stroke-linecap:square;stroke-width:0.2;"/>
   </g>
   <g id="line2d_6">
    <path clip-path="url(#p5b7c82e4f4)" d="M 104.138282 19.95599 
L 120.743638 36.561346 
" style="fill:none;stroke:#ff8c00;stroke-linecap:square;stroke-width:0.2;"/>
   </g>
   <g id="line2d_7">
    <path clip-path="url(#p5b7c82e4f4)" d="M 108.0378 63.483948 
" style="fill:none;stroke:#1f77b4;stroke-linecap:square;stroke-opacity:0;stroke-width:1.5;"/>
   </g>
   <g id="line2d_8">
    <path clip-path="url(#p5b7c82e4f4)" d="M 170.142476 28.258668 
L 153.53712 11.653312 
" style="fill:none;stroke:#ff8c00;stroke-linecap:square;stroke-width:0.5;"/>
   </g>
   <g id="line2d_9">
    <path clip-path="url(#p5b7c82e4f4)" d="M 153.53712 11.653312 
L 136.931764 28.258668 
" style="fill:none;stroke:#0000ff;stroke-linecap:square;stroke-width:0.5;"/>
   </g>
   <g id="line2d_10">
    <path clip-path="url(#p5b7c82e4f4)" d="M 136.931764 28.258668 
L 153.53712 44.864024 
" style="fill:none;stroke:#ff8c00;stroke-linecap:square;stroke-width:0.5;"/>
   </g>
   <g id="line2d_11">
    <path clip-path="url(#p5b7c82e4f4)" d="M 153.53712 44.864024 
L 170.142476 28.258668 
" style="fill:none;stroke:#0000ff;stroke-linecap:square;stroke-width:0.5;"/>
   </g>
   <g id="line2d_12">
    <path clip-path="url(#p5b7c82e4f4)" d="M 161.839798 19.95599 
L 145.234442 36.561346 
" style="fill:none;stroke:#0000ff;stroke-linecap:square;stroke-width:0.2;"/>
   </g>
   <g id="line2d_13">
    <path clip-path="url(#p5b7c82e4f4)" d="M 145.234442 19.95599 
L 161.839798 36.561346 
" style="fill:none;stroke:#ff8c00;stroke-linecap:square;stroke-width:0.2;"/>
   </g>
   <g id="line2d_14">
    <path clip-path="url(#p5b7c82e4f4)" d="M 149.13396 63.483948 
" style="fill:none;stroke:#ff7f0e;stroke-linecap:square;stroke-opacity:0;stroke-width:1.5;"/>
   </g>
   <g id="line2d_15">
    <path clip-path="url(#p5b7c82e4f4)" d="M 211.238636 28.258668 
L 194.63328 11.653312 
" style="fill:none;stroke:#ff8c00;stroke-linecap:square;stroke-width:0.5;"/>
   </g>
   <g id="line2d_16">
    <path clip-path="url(#p5b7c82e4f4)" d="M 194.63328 11.653312 
L 178.027924 28.258668 
" style="fill:none;stroke:#0000ff;stroke-linecap:square;stroke-width:0.5;"/>
   </g>
   <g id="line2d_17">
    <path clip-path="url(#p5b7c82e4f4)" d="M 178.027924 28.258668 
L 194.63328 44.864024 
" style="fill:none;stroke:#ff8c00;stroke-linecap:square;stroke-width:0.5;"/>
   </g>
   <g id="line2d_18">
    <path clip-path="url(#p5b7c82e4f4)" d="M 194.63328 44.864024 
L 211.238636 28.258668 
" style="fill:none;stroke:#0000ff;stroke-linecap:square;stroke-width:0.5;"/>
   </g>
   <g id="line2d_19">
    <path clip-path="url(#p5b7c82e4f4)" d="M 202.935958 19.95599 
L 186.330602 36.561346 
" style="fill:none;stroke:#0000ff;stroke-linecap:square;stroke-width:0.2;"/>
   </g>
   <g id="line2d_20">
    <path clip-path="url(#p5b7c82e4f4)" d="M 186.330602 19.95599 
L 202.935958 36.561346 
" style="fill:none;stroke:#ff8c00;stroke-linecap:square;stroke-width:0.2;"/>
   </g>
   <g id="line2d_21">
    <path clip-path="url(#p5b7c82e4f4)" d="M 190.23012 63.483948 
" style="fill:none;stroke:#2ca02c;stroke-linecap:square;stroke-opacity:0;stroke-width:1.5;"/>
   </g>
   <g id="line2d_22">
    <path clip-path="url(#p5b7c82e4f4)" d="M 252.334796 28.258668 
L 235.72944 11.653312 
" style="fill:none;stroke:#ff8c00;stroke-linecap:square;stroke-width:0.5;"/>
   </g>
   <g id="line2d_23">
    <path clip-path="url(#p5b7c82e4f4)" d="M 235.72944 11.653312 
L 219.124084 28.258668 
" style="fill:none;stroke:#0000ff;stroke-linecap:square;stroke-width:0.5;"/>
   </g>
   <g id="line2d_24">
    <path clip-path="url(#p5b7c82e4f4)" d="M 219.124084 28.258668 
L 235.72944 44.864024 
" style="fill:none;stroke:#ff8c00;stroke-linecap:square;stroke-width:0.5;"/>
   </g>
   <g id="line2d_25">
    <path clip-path="url(#p5b7c82e4f4)" d="M 235.72944 44.864024 
L 252.334796 28.258668 
" style="fill:none;stroke:#0000ff;stroke-linecap:square;stroke-width:0.5;"/>
   </g>
   <g id="line2d_26">
    <path clip-path="url(#p5b7c82e4f4)" d="M 244.032118 19.95599 
L 227.426762 36.561346 
" style="fill:none;stroke:#0000ff;stroke-linecap:square;stroke-width:0.2;"/>
   </g>
   <g id="line2d_27">
    <path clip-path="url(#p5b7c82e4f4)" d="M 227.426762 19.95599 
L 244.032118 36.561346 
" style="fill:none;stroke:#ff8c00;stroke-linecap:square;stroke-width:0.2;"/>
   </g>
   <g id="line2d_28">
    <path clip-path="url(#p5b7c82e4f4)" d="M 231.32628 63.483948 
" style="fill:none;stroke:#d62728;stroke-linecap:square;stroke-opacity:0;stroke-width:1.5;"/>
   </g>
   <g id="text_1">
    <!-- $\psi_0$ -->
    <g transform="translate(108.0378 61.383948)scale(0.1 -0.1)">
     <defs>
      <path d="M 24.859375 -1.21875 
Q 13.921875 0.59375 9.625 5.328125 
Q 4.34375 11.140625 6.640625 23 
L 12.796875 54.6875 
L 21.875 54.6875 
L 15.765625 23.34375 
Q 14.0625 14.40625 17.484375 10.6875 
Q 20.515625 7.46875 26.421875 6.78125 
L 35.6875 54.6875 
L 44.625 54.6875 
L 35.359375 6.84375 
Q 41.890625 7.515625 45.75 10.75 
Q 50.734375 14.84375 52.390625 23.390625 
L 58.453125 54.6875 
L 67.53125 54.6875 
L 61.375 23.046875 
Q 58.984375 10.75 51.5625 5.375 
Q 44.875 0.53125 33.796875 -1.171875 
L 29.984375 -20.796875 
L 21.046875 -20.796875 
z
" id="DejaVuSans-Oblique-968"/>
      <path d="M 31.78125 66.40625 
Q 24.171875 66.40625 20.328125 58.90625 
Q 16.5 51.421875 16.5 36.375 
Q 16.5 21.390625 20.328125 13.890625 
Q 24.171875 6.390625 31.78125 6.390625 
Q 39.453125 6.390625 43.28125 13.890625 
Q 47.125 21.390625 47.125 36.375 
Q 47.125 51.421875 43.28125 58.90625 
Q 39.453125 66.40625 31.78125 66.40625 
z
M 31.78125 74.21875 
Q 44.046875 74.21875 50.515625 64.515625 
Q 56.984375 54.828125 56.984375 36.375 
Q 56.984375 17.96875 50.515625 8.265625 
Q 44.046875 -1.421875 31.78125 -1.421875 
Q 19.53125 -1.421875 13.0625 8.265625 
Q 6.59375 17.96875 6.59375 36.375 
Q 6.59375 54.828125 13.0625 64.515625 
Q 19.53125 74.21875 31.78125 74.21875 
z
" id="DejaVuSans-48"/>
     </defs>
     <use transform="translate(0 0.3125)" xlink:href="#DejaVuSans-Oblique-968"/>
     <use transform="translate(65.966797 -16.09375)scale(0.7)" xlink:href="#DejaVuSans-48"/>
    </g>
   </g>
   <g id="text_2">
    <!-- $\psi_{Bell}$ -->
    <g transform="translate(190.23012 61.383948)scale(0.1 -0.1)">
     <defs>
      <path d="M 16.890625 72.90625 
L 42.09375 72.90625 
Q 52.34375 72.90625 57.421875 69.09375 
Q 62.5 65.28125 62.5 57.625 
Q 62.5 50.59375 58.125 45.484375 
Q 53.765625 40.375 46.6875 39.3125 
Q 52.734375 37.9375 55.765625 34.078125 
Q 58.796875 30.21875 58.796875 23.78125 
Q 58.796875 12.796875 50.65625 6.390625 
Q 42.53125 0 28.421875 0 
L 2.6875 0 
z
M 19.28125 34.8125 
L 14.109375 8.109375 
L 29.984375 8.109375 
Q 38.921875 8.109375 43.75 12.203125 
Q 48.578125 16.3125 48.578125 23.78125 
Q 48.578125 29.546875 45.375 32.171875 
Q 42.1875 34.8125 35.109375 34.8125 
z
M 25.09375 64.796875 
L 20.796875 42.828125 
L 35.5 42.828125 
Q 43.359375 42.828125 47.78125 46.234375 
Q 52.203125 49.65625 52.203125 55.71875 
Q 52.203125 60.453125 49.21875 62.625 
Q 46.234375 64.796875 39.703125 64.796875 
z
" id="DejaVuSans-Oblique-66"/>
      <path d="M 48.09375 32.234375 
Q 48.25 33.015625 48.3125 33.84375 
Q 48.390625 34.671875 48.390625 35.5 
Q 48.390625 41.453125 44.890625 44.921875 
Q 41.40625 48.390625 35.40625 48.390625 
Q 28.71875 48.390625 23.578125 44.15625 
Q 18.453125 39.9375 15.828125 32.171875 
z
M 55.90625 25.203125 
L 14.109375 25.203125 
Q 13.8125 23.34375 13.71875 22.265625 
Q 13.625 21.1875 13.625 20.40625 
Q 13.625 13.625 17.796875 9.90625 
Q 21.96875 6.203125 29.59375 6.203125 
Q 35.453125 6.203125 40.671875 7.515625 
Q 45.90625 8.84375 50.390625 11.375 
L 48.6875 2.484375 
Q 43.84375 0.53125 38.6875 -0.4375 
Q 33.546875 -1.421875 28.21875 -1.421875 
Q 16.84375 -1.421875 10.71875 4.015625 
Q 4.59375 9.46875 4.59375 19.484375 
Q 4.59375 28.03125 7.640625 35.375 
Q 10.6875 42.71875 16.609375 48.484375 
Q 20.40625 52.09375 25.65625 54.046875 
Q 30.90625 56 36.8125 56 
Q 46.09375 56 51.578125 50.4375 
Q 57.078125 44.875 57.078125 35.5 
Q 57.078125 33.25 56.78125 30.6875 
Q 56.5 28.125 55.90625 25.203125 
z
" id="DejaVuSans-Oblique-101"/>
      <path d="M 18.3125 75.984375 
L 27.296875 75.984375 
L 12.5 0 
L 3.515625 0 
z
" id="DejaVuSans-Oblique-108"/>
     </defs>
     <use transform="translate(0 0.3125)" xlink:href="#DejaVuSans-Oblique-968"/>
     <use transform="translate(65.966797 -16.09375)scale(0.7)" xlink:href="#DejaVuSans-Oblique-66"/>
     <use transform="translate(113.989258 -16.09375)scale(0.7)" xlink:href="#DejaVuSans-Oblique-101"/>
     <use transform="translate(157.055664 -16.09375)scale(0.7)" xlink:href="#DejaVuSans-Oblique-108"/>
     <use transform="translate(176.503906 -16.09375)scale(0.7)" xlink:href="#DejaVuSans-Oblique-108"/>
    </g>
   </g>
   <g id="text_3">
    <!-- $\psi_M$ -->
    <g transform="translate(231.32628 61.383948)scale(0.1 -0.1)">
     <defs>
      <path d="M 16.890625 72.90625 
L 31.6875 72.90625 
L 40.1875 23.78125 
L 68.40625 72.90625 
L 83.59375 72.90625 
L 69.390625 0 
L 59.8125 0 
L 72.21875 63.921875 
L 43.609375 14.015625 
L 33.984375 14.015625 
L 24.703125 64.109375 
L 12.3125 0 
L 2.6875 0 
z
" id="DejaVuSans-Oblique-77"/>
     </defs>
     <use transform="translate(0 0.3125)" xlink:href="#DejaVuSans-Oblique-968"/>
     <use transform="translate(65.966797 -16.09375)scale(0.7)" xlink:href="#DejaVuSans-Oblique-77"/>
    </g>
   </g>
   <g id="PolyCollection_1">
    <defs>
     <path d="M 118.31184 -55.558844 
L 118.31184 -55.558844 
L 118.299778 -55.934993 
L 118.26364 -56.309596 
L 118.203576 -56.681114 
L 118.119832 -57.04802 
L 118.012752 -57.408807 
L 117.882777 -57.761992 
L 117.73044 -58.106124 
L 117.556368 -58.439788 
L 117.361275 -58.761614 
L 117.145963 -59.070279 
L 116.911318 -59.364515 
L 116.658303 -59.643113 
L 116.387958 -59.904928 
L 116.101394 -60.148883 
L 115.799788 -60.373977 
L 115.484381 -60.579285 
L 115.156467 -60.763962 
L 114.817394 -60.927251 
L 114.468557 -61.06848 
L 114.111387 -61.187068 
L 113.747354 -61.282529 
L 113.377952 -61.35447 
L 113.0047 -61.402596 
L 112.629131 -61.426708 
L 112.252789 -61.426708 
L 111.87722 -61.402596 
L 111.503968 -61.35447 
L 111.134566 -61.282529 
L 110.770533 -61.187068 
L 110.413363 -61.06848 
L 110.064526 -60.927251 
L 109.725453 -60.763962 
L 109.397539 -60.579285 
L 109.082132 -60.373977 
L 108.780526 -60.148883 
L 108.493962 -59.904928 
L 108.223617 -59.643113 
L 107.970602 -59.364515 
L 107.735957 -59.070279 
L 107.520645 -58.761614 
L 107.325552 -58.439788 
L 107.15148 -58.106124 
L 106.999143 -57.761992 
L 106.869168 -57.408807 
L 106.762088 -57.04802 
L 106.678344 -56.681114 
L 106.61828 -56.309596 
L 106.582142 -55.934993 
L 106.57008 -55.558844 
L 106.57008 -55.558844 
L 106.57008 -55.558844 
L 106.582142 -55.182696 
L 106.61828 -54.808093 
L 106.678344 -54.436575 
L 106.762088 -54.069669 
L 106.869168 -53.708882 
L 106.999143 -53.355697 
L 107.15148 -53.011565 
L 107.325552 -52.6779 
L 107.520645 -52.356074 
L 107.735957 -52.047409 
L 107.970602 -51.753173 
L 108.223617 -51.474575 
L 108.493962 -51.212761 
L 108.780526 -50.968805 
L 109.082132 -50.743711 
L 109.397539 -50.538404 
L 109.725453 -50.353726 
L 110.064526 -50.190437 
L 110.413363 -50.049209 
L 110.770533 -49.93062 
L 111.134566 -49.835159 
L 111.503968 -49.763218 
L 111.87722 -49.715093 
L 112.252789 -49.690981 
L 112.629131 -49.690981 
L 113.0047 -49.715093 
L 113.377952 -49.763218 
L 113.747354 -49.835159 
L 114.111387 -49.93062 
L 114.468557 -50.049209 
L 114.817394 -50.190437 
L 115.156467 -50.353726 
L 115.484381 -50.538404 
L 115.799788 -50.743711 
L 116.101394 -50.968805 
L 116.387958 -51.212761 
L 116.658303 -51.474575 
L 116.911318 -51.753173 
L 117.145963 -52.047409 
L 117.361275 -52.356074 
L 117.556368 -52.6779 
L 117.73044 -53.011565 
L 117.882777 -53.355697 
L 118.012752 -53.708882 
L 118.119832 -54.069669 
L 118.203576 -54.436575 
L 118.26364 -54.808093 
L 118.299778 -55.182696 
L 118.31184 -55.558844 
z
" id="mb0bda0e4da" style="stroke:#000000;stroke-opacity:0.8;"/>
    </defs>
    <g clip-path="url(#p5b7c82e4f4)">
     <use style="fill:#2f1436;fill-opacity:0.8;stroke:#000000;stroke-opacity:0.8;" x="0" xlink:href="#mb0bda0e4da" y="75.514834"/>
    </g>
   </g>
   <g id="PolyCollection_2">
    <defs>
     <path d="M 157.688459 -55.558844 
L 157.688459 -55.558844 
L 157.67993 -55.824821 
L 157.654377 -56.089706 
L 157.611905 -56.352408 
L 157.552689 -56.61185 
L 157.476972 -56.866965 
L 157.385066 -57.116705 
L 157.277347 -57.360043 
L 157.154259 -57.595979 
L 157.016308 -57.823545 
L 156.86406 -58.041804 
L 156.69814 -58.24986 
L 156.519232 -58.446858 
L 156.328069 -58.631989 
L 156.125438 -58.804492 
L 155.91217 -58.963657 
L 155.689143 -59.108832 
L 155.457273 -59.239418 
L 155.217513 -59.354881 
L 154.970847 -59.454745 
L 154.71829 -59.538599 
L 154.46088 -59.6061 
L 154.199673 -59.65697 
L 153.935744 -59.691 
L 153.670177 -59.70805 
L 153.404063 -59.70805 
L 153.138496 -59.691 
L 152.874567 -59.65697 
L 152.61336 -59.6061 
L 152.35595 -59.538599 
L 152.103393 -59.454745 
L 151.856727 -59.354881 
L 151.616967 -59.239418 
L 151.385097 -59.108832 
L 151.16207 -58.963657 
L 150.948802 -58.804492 
L 150.746171 -58.631989 
L 150.555008 -58.446858 
L 150.3761 -58.24986 
L 150.21018 -58.041804 
L 150.057932 -57.823545 
L 149.919981 -57.595979 
L 149.796893 -57.360043 
L 149.689174 -57.116705 
L 149.597268 -56.866965 
L 149.521551 -56.61185 
L 149.462335 -56.352408 
L 149.419863 -56.089706 
L 149.39431 -55.824821 
L 149.385781 -55.558844 
L 149.385781 -55.558844 
L 149.385781 -55.558844 
L 149.39431 -55.292867 
L 149.419863 -55.027983 
L 149.462335 -54.76528 
L 149.521551 -54.505838 
L 149.597268 -54.250723 
L 149.689174 -54.000984 
L 149.796893 -53.757646 
L 149.919981 -53.521709 
L 150.057932 -53.294144 
L 150.21018 -53.075885 
L 150.3761 -52.867828 
L 150.555008 -52.67083 
L 150.746171 -52.485699 
L 150.948802 -52.313197 
L 151.16207 -52.154031 
L 151.385097 -52.008857 
L 151.616967 -51.87827 
L 151.856727 -51.762807 
L 152.103393 -51.662944 
L 152.35595 -51.579089 
L 152.61336 -51.511588 
L 152.874567 -51.460718 
L 153.138496 -51.426688 
L 153.404063 -51.409638 
L 153.670177 -51.409638 
L 153.935744 -51.426688 
L 154.199673 -51.460718 
L 154.46088 -51.511588 
L 154.71829 -51.579089 
L 154.970847 -51.662944 
L 155.217513 -51.762807 
L 155.457273 -51.87827 
L 155.689143 -52.008857 
L 155.91217 -52.154031 
L 156.125438 -52.313197 
L 156.328069 -52.485699 
L 156.519232 -52.67083 
L 156.69814 -52.867828 
L 156.86406 -53.075885 
L 157.016308 -53.294144 
L 157.154259 -53.521709 
L 157.277347 -53.757646 
L 157.385066 -54.000984 
L 157.476972 -54.250723 
L 157.552689 -54.505838 
L 157.611905 -54.76528 
L 157.654377 -55.027983 
L 157.67993 -55.292867 
L 157.688459 -55.558844 
z
" id="m5680b1059e" style="stroke:#000000;stroke-opacity:0.8;stroke-width:0.707107;"/>
    </defs>
    <g clip-path="url(#p5b7c82e4f4)">
     <use style="fill:#2f1436;fill-opacity:0.8;stroke:#000000;stroke-opacity:0.8;stroke-width:0.707107;" x="0" xlink:href="#m5680b1059e" y="75.514834"/>
    </g>
   </g>
   <g id="PolyCollection_3">
    <defs>
     <path d="M 165.991137 -47.256166 
L 165.991137 -47.256166 
L 165.982608 -47.522143 
L 165.957055 -47.787028 
L 165.914583 -48.04973 
L 165.855367 -48.309172 
L 165.77965 -48.564287 
L 165.687744 -48.814027 
L 165.580025 -49.057365 
L 165.456937 -49.293301 
L 165.318986 -49.520866 
L 165.166738 -49.739126 
L 165.000818 -49.947182 
L 164.82191 -50.14418 
L 164.630747 -50.329311 
L 164.428116 -50.501814 
L 164.214848 -50.660979 
L 163.991821 -50.806154 
L 163.759951 -50.93674 
L 163.520191 -51.052203 
L 163.273526 -51.152067 
L 163.020969 -51.235921 
L 162.763558 -51.303422 
L 162.502351 -51.354292 
L 162.238422 -51.388322 
L 161.972855 -51.405372 
L 161.706741 -51.405372 
L 161.441174 -51.388322 
L 161.177245 -51.354292 
L 160.916038 -51.303422 
L 160.658628 -51.235921 
L 160.406071 -51.152067 
L 160.159405 -51.052203 
L 159.919645 -50.93674 
L 159.687775 -50.806154 
L 159.464748 -50.660979 
L 159.251481 -50.501814 
L 159.048849 -50.329311 
L 158.857686 -50.14418 
L 158.678778 -49.947182 
L 158.512859 -49.739126 
L 158.36061 -49.520866 
L 158.222659 -49.293301 
L 158.099571 -49.057365 
L 157.991852 -48.814027 
L 157.899946 -48.564287 
L 157.824229 -48.309172 
L 157.765013 -48.04973 
L 157.722542 -47.787028 
L 157.696989 -47.522143 
L 157.688459 -47.256166 
L 157.688459 -47.256166 
L 157.688459 -47.256166 
L 157.696989 -46.990189 
L 157.722542 -46.725305 
L 157.765013 -46.462602 
L 157.824229 -46.20316 
L 157.899946 -45.948045 
L 157.991852 -45.698306 
L 158.099571 -45.454968 
L 158.222659 -45.219031 
L 158.36061 -44.991466 
L 158.512859 -44.773207 
L 158.678778 -44.56515 
L 158.857686 -44.368152 
L 159.048849 -44.183021 
L 159.251481 -44.010519 
L 159.464748 -43.851353 
L 159.687775 -43.706179 
L 159.919645 -43.575592 
L 160.159405 -43.460129 
L 160.406071 -43.360266 
L 160.658628 -43.276411 
L 160.916038 -43.20891 
L 161.177245 -43.15804 
L 161.441174 -43.12401 
L 161.706741 -43.10696 
L 161.972855 -43.10696 
L 162.238422 -43.12401 
L 162.502351 -43.15804 
L 162.763558 -43.20891 
L 163.020969 -43.276411 
L 163.273526 -43.360266 
L 163.520191 -43.460129 
L 163.759951 -43.575592 
L 163.991821 -43.706179 
L 164.214848 -43.851353 
L 164.428116 -44.010519 
L 164.630747 -44.183021 
L 164.82191 -44.368152 
L 165.000818 -44.56515 
L 165.166738 -44.773207 
L 165.318986 -44.991466 
L 165.456937 -45.219031 
L 165.580025 -45.454968 
L 165.687744 -45.698306 
L 165.77965 -45.948045 
L 165.855367 -46.20316 
L 165.914583 -46.462602 
L 165.957055 -46.725305 
L 165.982608 -46.990189 
L 165.991137 -47.256166 
z
" id="m2e620bd5c9" style="stroke:#000000;stroke-opacity:0.8;stroke-width:0.707107;"/>
    </defs>
    <g clip-path="url(#p5b7c82e4f4)">
     <use style="fill:#2f1436;fill-opacity:0.8;stroke:#000000;stroke-opacity:0.8;stroke-width:0.707107;" x="0" xlink:href="#m2e620bd5c9" y="75.514834"/>
    </g>
   </g>
   <g id="PolyCollection_4">
    <defs>
     <path d="M 198.784619 -55.558844 
L 198.784619 -55.558844 
L 198.77609 -55.824821 
L 198.750537 -56.089706 
L 198.708065 -56.352408 
L 198.648849 -56.61185 
L 198.573132 -56.866965 
L 198.481226 -57.116705 
L 198.373507 -57.360043 
L 198.250419 -57.595979 
L 198.112468 -57.823545 
L 197.96022 -58.041804 
L 197.7943 -58.24986 
L 197.615392 -58.446858 
L 197.424229 -58.631989 
L 197.221598 -58.804492 
L 197.00833 -58.963657 
L 196.785303 -59.108832 
L 196.553433 -59.239418 
L 196.313673 -59.354881 
L 196.067007 -59.454745 
L 195.81445 -59.538599 
L 195.55704 -59.6061 
L 195.295833 -59.65697 
L 195.031904 -59.691 
L 194.766337 -59.70805 
L 194.500223 -59.70805 
L 194.234656 -59.691 
L 193.970727 -59.65697 
L 193.70952 -59.6061 
L 193.45211 -59.538599 
L 193.199553 -59.454745 
L 192.952887 -59.354881 
L 192.713127 -59.239418 
L 192.481257 -59.108832 
L 192.25823 -58.963657 
L 192.044962 -58.804492 
L 191.842331 -58.631989 
L 191.651168 -58.446858 
L 191.47226 -58.24986 
L 191.30634 -58.041804 
L 191.154092 -57.823545 
L 191.016141 -57.595979 
L 190.893053 -57.360043 
L 190.785334 -57.116705 
L 190.693428 -56.866965 
L 190.617711 -56.61185 
L 190.558495 -56.352408 
L 190.516023 -56.089706 
L 190.49047 -55.824821 
L 190.481941 -55.558844 
L 190.481941 -55.558844 
L 190.481941 -55.558844 
L 190.49047 -55.292867 
L 190.516023 -55.027983 
L 190.558495 -54.76528 
L 190.617711 -54.505838 
L 190.693428 -54.250723 
L 190.785334 -54.000984 
L 190.893053 -53.757646 
L 191.016141 -53.521709 
L 191.154092 -53.294144 
L 191.30634 -53.075885 
L 191.47226 -52.867828 
L 191.651168 -52.67083 
L 191.842331 -52.485699 
L 192.044962 -52.313197 
L 192.25823 -52.154031 
L 192.481257 -52.008857 
L 192.713127 -51.87827 
L 192.952887 -51.762807 
L 193.199553 -51.662944 
L 193.45211 -51.579089 
L 193.70952 -51.511588 
L 193.970727 -51.460718 
L 194.234656 -51.426688 
L 194.500223 -51.409638 
L 194.766337 -51.409638 
L 195.031904 -51.426688 
L 195.295833 -51.460718 
L 195.55704 -51.511588 
L 195.81445 -51.579089 
L 196.067007 -51.662944 
L 196.313673 -51.762807 
L 196.553433 -51.87827 
L 196.785303 -52.008857 
L 197.00833 -52.154031 
L 197.221598 -52.313197 
L 197.424229 -52.485699 
L 197.615392 -52.67083 
L 197.7943 -52.867828 
L 197.96022 -53.075885 
L 198.112468 -53.294144 
L 198.250419 -53.521709 
L 198.373507 -53.757646 
L 198.481226 -54.000984 
L 198.573132 -54.250723 
L 198.648849 -54.505838 
L 198.708065 -54.76528 
L 198.750537 -55.027983 
L 198.77609 -55.292867 
L 198.784619 -55.558844 
z
" id="m27347d8f8b" style="stroke:#000000;stroke-opacity:0.8;stroke-width:0.707107;"/>
    </defs>
    <g clip-path="url(#p5b7c82e4f4)">
     <use style="fill:#2f1436;fill-opacity:0.8;stroke:#000000;stroke-opacity:0.8;stroke-width:0.707107;" x="0" xlink:href="#m27347d8f8b" y="75.514834"/>
    </g>
   </g>
   <g id="PolyCollection_5">
    <defs>
     <path d="M 198.784619 -38.953488 
L 198.784619 -38.953488 
L 198.77609 -39.219465 
L 198.750537 -39.484349 
L 198.708065 -39.747052 
L 198.648849 -40.006494 
L 198.573132 -40.261609 
L 198.481226 -40.511349 
L 198.373507 -40.754686 
L 198.250419 -40.990623 
L 198.112468 -41.218188 
L 197.96022 -41.436448 
L 197.7943 -41.644504 
L 197.615392 -41.841502 
L 197.424229 -42.026633 
L 197.221598 -42.199135 
L 197.00833 -42.358301 
L 196.785303 -42.503475 
L 196.553433 -42.634062 
L 196.313673 -42.749525 
L 196.067007 -42.849389 
L 195.81445 -42.933243 
L 195.55704 -43.000744 
L 195.295833 -43.051614 
L 195.031904 -43.085644 
L 194.766337 -43.102694 
L 194.500223 -43.102694 
L 194.234656 -43.085644 
L 193.970727 -43.051614 
L 193.70952 -43.000744 
L 193.45211 -42.933243 
L 193.199553 -42.849389 
L 192.952887 -42.749525 
L 192.713127 -42.634062 
L 192.481257 -42.503475 
L 192.25823 -42.358301 
L 192.044962 -42.199135 
L 191.842331 -42.026633 
L 191.651168 -41.841502 
L 191.47226 -41.644504 
L 191.30634 -41.436448 
L 191.154092 -41.218188 
L 191.016141 -40.990623 
L 190.893053 -40.754686 
L 190.785334 -40.511349 
L 190.693428 -40.261609 
L 190.617711 -40.006494 
L 190.558495 -39.747052 
L 190.516023 -39.484349 
L 190.49047 -39.219465 
L 190.481941 -38.953488 
L 190.481941 -38.953488 
L 190.481941 -38.953488 
L 190.49047 -38.687511 
L 190.516023 -38.422627 
L 190.558495 -38.159924 
L 190.617711 -37.900482 
L 190.693428 -37.645367 
L 190.785334 -37.395627 
L 190.893053 -37.152289 
L 191.016141 -36.916353 
L 191.154092 -36.688788 
L 191.30634 -36.470528 
L 191.47226 -36.262472 
L 191.651168 -36.065474 
L 191.842331 -35.880343 
L 192.044962 -35.70784 
L 192.25823 -35.548675 
L 192.481257 -35.4035 
L 192.713127 -35.272914 
L 192.952887 -35.157451 
L 193.199553 -35.057587 
L 193.45211 -34.973733 
L 193.70952 -34.906232 
L 193.970727 -34.855362 
L 194.234656 -34.821332 
L 194.500223 -34.804282 
L 194.766337 -34.804282 
L 195.031904 -34.821332 
L 195.295833 -34.855362 
L 195.55704 -34.906232 
L 195.81445 -34.973733 
L 196.067007 -35.057587 
L 196.313673 -35.157451 
L 196.553433 -35.272914 
L 196.785303 -35.4035 
L 197.00833 -35.548675 
L 197.221598 -35.70784 
L 197.424229 -35.880343 
L 197.615392 -36.065474 
L 197.7943 -36.262472 
L 197.96022 -36.470528 
L 198.112468 -36.688788 
L 198.250419 -36.916353 
L 198.373507 -37.152289 
L 198.481226 -37.395627 
L 198.573132 -37.645367 
L 198.648849 -37.900482 
L 198.708065 -38.159924 
L 198.750537 -38.422627 
L 198.77609 -38.687511 
L 198.784619 -38.953488 
z
" id="m5b70962883" style="stroke:#000000;stroke-opacity:0.8;stroke-width:0.707107;"/>
    </defs>
    <g clip-path="url(#p5b7c82e4f4)">
     <use style="fill:#2f1436;fill-opacity:0.8;stroke:#000000;stroke-opacity:0.8;stroke-width:0.707107;" x="0" xlink:href="#m5b70962883" y="75.514834"/>
    </g>
   </g>
   <g id="PolyCollection_6">
    <defs>
     <path d="M 241.60032 -38.953488 
L 241.60032 -38.953488 
L 241.588257 -39.329637 
L 241.55212 -39.704239 
L 241.492056 -40.075757 
L 241.408312 -40.442664 
L 241.301232 -40.80345 
L 241.171257 -41.156635 
L 241.01892 -41.500767 
L 240.844847 -41.834432 
L 240.649754 -42.156258 
L 240.434443 -42.464923 
L 240.199798 -42.759159 
L 239.946783 -43.037757 
L 239.676438 -43.299571 
L 239.389874 -43.543527 
L 239.088268 -43.768621 
L 238.77286 -43.973928 
L 238.444947 -44.158606 
L 238.105874 -44.321894 
L 237.757037 -44.463123 
L 237.399867 -44.581712 
L 237.035834 -44.677172 
L 236.666432 -44.749113 
L 236.29318 -44.797239 
L 235.917611 -44.821351 
L 235.541269 -44.821351 
L 235.1657 -44.797239 
L 234.792448 -44.749113 
L 234.423046 -44.677172 
L 234.059013 -44.581712 
L 233.701843 -44.463123 
L 233.353006 -44.321894 
L 233.013933 -44.158606 
L 232.68602 -43.973928 
L 232.370612 -43.768621 
L 232.069006 -43.543527 
L 231.782442 -43.299571 
L 231.512097 -43.037757 
L 231.259082 -42.759159 
L 231.024437 -42.464923 
L 230.809126 -42.156258 
L 230.614033 -41.834432 
L 230.43996 -41.500767 
L 230.287623 -41.156635 
L 230.157648 -40.80345 
L 230.050568 -40.442664 
L 229.966824 -40.075757 
L 229.90676 -39.704239 
L 229.870623 -39.329637 
L 229.85856 -38.953488 
L 229.85856 -38.953488 
L 229.85856 -38.953488 
L 229.870623 -38.577339 
L 229.90676 -38.202737 
L 229.966824 -37.831219 
L 230.050568 -37.464312 
L 230.157648 -37.103526 
L 230.287623 -36.750341 
L 230.43996 -36.406209 
L 230.614033 -36.072544 
L 230.809126 -35.750718 
L 231.024437 -35.442053 
L 231.259082 -35.147817 
L 231.512097 -34.869219 
L 231.782442 -34.607405 
L 232.069006 -34.363449 
L 232.370612 -34.138355 
L 232.68602 -33.933048 
L 233.013933 -33.74837 
L 233.353006 -33.585082 
L 233.701843 -33.443853 
L 234.059013 -33.325264 
L 234.423046 -33.229804 
L 234.792448 -33.157863 
L 235.1657 -33.109737 
L 235.541269 -33.085625 
L 235.917611 -33.085625 
L 236.29318 -33.109737 
L 236.666432 -33.157863 
L 237.035834 -33.229804 
L 237.399867 -33.325264 
L 237.757037 -33.443853 
L 238.105874 -33.585082 
L 238.444947 -33.74837 
L 238.77286 -33.933048 
L 239.088268 -34.138355 
L 239.389874 -34.363449 
L 239.676438 -34.607405 
L 239.946783 -34.869219 
L 240.199798 -35.147817 
L 240.434443 -35.442053 
L 240.649754 -35.750718 
L 240.844847 -36.072544 
L 241.01892 -36.406209 
L 241.171257 -36.750341 
L 241.301232 -37.103526 
L 241.408312 -37.464312 
L 241.492056 -37.831219 
L 241.55212 -38.202737 
L 241.588257 -38.577339 
L 241.60032 -38.953488 
z
" id="meb174f4c14" style="stroke:#000000;stroke-opacity:0.8;stroke-width:1;"/>
    </defs>
    <g clip-path="url(#p5b7c82e4f4)">
     <use style="fill:#2f1436;fill-opacity:0.8;stroke:#000000;stroke-opacity:0.8;stroke-width:1;" x="0" xlink:href="#meb174f4c14" y="75.514834"/>
    </g>
   </g>
   <g id="line2d_29">
    <path clip-path="url(#p5b7c82e4f4)" d="M 112.44096 19.95599 
L 118.31184 19.95599 
" style="fill:none;stroke:#000000;stroke-linecap:square;"/>
   </g>
   <g id="line2d_30">
    <path clip-path="url(#p5b7c82e4f4)" d="M 153.53712 19.95599 
L 157.688459 19.95599 
" style="fill:none;stroke:#000000;stroke-linecap:square;stroke-width:0.707107;"/>
   </g>
   <g id="line2d_31">
    <path clip-path="url(#p5b7c82e4f4)" d="M 161.839798 28.258668 
L 165.991137 28.258668 
" style="fill:none;stroke:#000000;stroke-linecap:square;stroke-width:0.707107;"/>
   </g>
   <g id="line2d_32">
    <path clip-path="url(#p5b7c82e4f4)" d="M 194.63328 19.95599 
L 198.784619 19.95599 
" style="fill:none;stroke:#000000;stroke-linecap:square;stroke-width:0.707107;"/>
   </g>
   <g id="line2d_33">
    <path clip-path="url(#p5b7c82e4f4)" d="M 194.63328 36.561346 
L 198.784619 36.561346 
" style="fill:none;stroke:#000000;stroke-linecap:square;stroke-width:0.707107;"/>
   </g>
   <g id="line2d_34">
    <path clip-path="url(#p5b7c82e4f4)" d="M 235.72944 36.561346 
L 241.60032 36.561346 
" style="fill:none;stroke:#000000;stroke-linecap:square;stroke-width:1;"/>
   </g>
  </g>
 </g>
 <defs>
  <clipPath id="p5b7c82e4f4">
   <rect height="57.0137" width="234.8352" x="41.9904" y="9.06178"/>
  </clipPath>
 </defs>
</svg>
