<?xml version="1.0" encoding="utf-8" standalone="no"?>
<!DOCTYPE svg PUBLIC "-//W3C//DTD SVG 1.1//EN"
  "http://www.w3.org/Graphics/SVG/1.1/DTD/svg11.dtd">
<!-- Created with matplotlib (https://matplotlib.org/) -->
<svg height="75.299692pt" version="1.1" viewBox="0 0 302.4 75.299692" width="302.4pt" xmlns="http://www.w3.org/2000/svg" xmlns:xlink="http://www.w3.org/1999/xlink">
 <metadata>
  <rdf:RDF xmlns:cc="http://creativecommons.org/ns#" xmlns:dc="http://purl.org/dc/elements/1.1/" xmlns:rdf="http://www.w3.org/1999/02/22-rdf-syntax-ns#">
   <cc:Work>
    <dc:type rdf:resource="http://purl.org/dc/dcmitype/StillImage"/>
    <dc:date>2021-05-31T10:31:36.238206</dc:date>
    <dc:format>image/svg+xml</dc:format>
    <dc:creator>
     <cc:Agent>
      <dc:title>Matplotlib v3.3.2, https://matplotlib.org/</dc:title>
     </cc:Agent>
    </dc:creator>
   </cc:Work>
  </rdf:RDF>
 </metadata>
 <defs>
  <style type="text/css">*{stroke-linecap:butt;stroke-linejoin:round;}</style>
 </defs>
 <g id="figure_1">
  <g id="patch_1">
   <path d="M 0 75.299692 
L 302.4 75.299692 
L 302.4 0 
L 0 0 
z
" style="fill:none;"/>
  </g>
  <g id="axes_1">
   <g id="line2d_1">
    <path clip-path="url(#p9f65db9596)" d="M 121.77774 28.178159 
L 105.219692 11.620112 
" style="fill:none;stroke:#ff8c00;stroke-linecap:square;stroke-width:0.5;"/>
   </g>
   <g id="line2d_2">
    <path clip-path="url(#p9f65db9596)" d="M 105.219692 11.620112 
L 88.661645 28.178159 
" style="fill:none;stroke:#0000ff;stroke-linecap:square;stroke-width:0.5;"/>
   </g>
   <g id="line2d_3">
    <path clip-path="url(#p9f65db9596)" d="M 88.661645 28.178159 
L 105.219692 44.736207 
" style="fill:none;stroke:#ff8c00;stroke-linecap:square;stroke-width:0.5;"/>
   </g>
   <g id="line2d_4">
    <path clip-path="url(#p9f65db9596)" d="M 105.219692 44.736207 
L 121.77774 28.178159 
" style="fill:none;stroke:#0000ff;stroke-linecap:square;stroke-width:0.5;"/>
   </g>
   <g id="line2d_5">
    <path clip-path="url(#p9f65db9596)" d="M 113.498716 19.899135 
L 96.940669 36.457183 
" style="fill:none;stroke:#0000ff;stroke-linecap:square;stroke-width:0.2;"/>
   </g>
   <g id="line2d_6">
    <path clip-path="url(#p9f65db9596)" d="M 96.940669 19.899135 
L 113.498716 36.457183 
" style="fill:none;stroke:#ff8c00;stroke-linecap:square;stroke-width:0.2;"/>
   </g>
   <g id="line2d_7">
    <path clip-path="url(#p9f65db9596)" d="M 100.829077 63.303082 
" style="fill:none;stroke:#1f77b4;stroke-linecap:square;stroke-opacity:0;stroke-width:1.5;"/>
   </g>
   <g id="line2d_8">
    <path clip-path="url(#p9f65db9596)" d="M 162.756817 28.178159 
L 146.198769 11.620112 
" style="fill:none;stroke:#ff8c00;stroke-linecap:square;stroke-width:0.5;"/>
   </g>
   <g id="line2d_9">
    <path clip-path="url(#p9f65db9596)" d="M 146.198769 11.620112 
L 129.640722 28.178159 
" style="fill:none;stroke:#0000ff;stroke-linecap:square;stroke-width:0.5;"/>
   </g>
   <g id="line2d_10">
    <path clip-path="url(#p9f65db9596)" d="M 129.640722 28.178159 
L 146.198769 44.736207 
" style="fill:none;stroke:#ff8c00;stroke-linecap:square;stroke-width:0.5;"/>
   </g>
   <g id="line2d_11">
    <path clip-path="url(#p9f65db9596)" d="M 146.198769 44.736207 
L 162.756817 28.178159 
" style="fill:none;stroke:#0000ff;stroke-linecap:square;stroke-width:0.5;"/>
   </g>
   <g id="line2d_12">
    <path clip-path="url(#p9f65db9596)" d="M 154.477793 19.899135 
L 137.919745 36.457183 
" style="fill:none;stroke:#0000ff;stroke-linecap:square;stroke-width:0.2;"/>
   </g>
   <g id="line2d_13">
    <path clip-path="url(#p9f65db9596)" d="M 137.919745 19.899135 
L 154.477793 36.457183 
" style="fill:none;stroke:#ff8c00;stroke-linecap:square;stroke-width:0.2;"/>
   </g>
   <g id="line2d_14">
    <path clip-path="url(#p9f65db9596)" d="M 141.808154 63.303082 
" style="fill:none;stroke:#ff7f0e;stroke-linecap:square;stroke-opacity:0;stroke-width:1.5;"/>
   </g>
   <g id="line2d_15">
    <path clip-path="url(#p9f65db9596)" d="M 203.735894 28.178159 
L 187.177846 11.620112 
" style="fill:none;stroke:#ff8c00;stroke-linecap:square;stroke-width:0.5;"/>
   </g>
   <g id="line2d_16">
    <path clip-path="url(#p9f65db9596)" d="M 187.177846 11.620112 
L 170.619799 28.178159 
" style="fill:none;stroke:#0000ff;stroke-linecap:square;stroke-width:0.5;"/>
   </g>
   <g id="line2d_17">
    <path clip-path="url(#p9f65db9596)" d="M 170.619799 28.178159 
L 187.177846 44.736207 
" style="fill:none;stroke:#ff8c00;stroke-linecap:square;stroke-width:0.5;"/>
   </g>
   <g id="line2d_18">
    <path clip-path="url(#p9f65db9596)" d="M 187.177846 44.736207 
L 203.735894 28.178159 
" style="fill:none;stroke:#0000ff;stroke-linecap:square;stroke-width:0.5;"/>
   </g>
   <g id="line2d_19">
    <path clip-path="url(#p9f65db9596)" d="M 195.45687 19.899135 
L 178.898822 36.457183 
" style="fill:none;stroke:#0000ff;stroke-linecap:square;stroke-width:0.2;"/>
   </g>
   <g id="line2d_20">
    <path clip-path="url(#p9f65db9596)" d="M 178.898822 19.899135 
L 195.45687 36.457183 
" style="fill:none;stroke:#ff8c00;stroke-linecap:square;stroke-width:0.2;"/>
   </g>
   <g id="line2d_21">
    <path clip-path="url(#p9f65db9596)" d="M 182.787231 63.303082 
" style="fill:none;stroke:#2ca02c;stroke-linecap:square;stroke-opacity:0;stroke-width:1.5;"/>
   </g>
   <g id="line2d_22">
    <path clip-path="url(#p9f65db9596)" d="M 244.714971 28.178159 
L 228.156923 11.620112 
" style="fill:none;stroke:#ff8c00;stroke-linecap:square;stroke-width:0.5;"/>
   </g>
   <g id="line2d_23">
    <path clip-path="url(#p9f65db9596)" d="M 228.156923 11.620112 
L 211.598876 28.178159 
" style="fill:none;stroke:#0000ff;stroke-linecap:square;stroke-width:0.5;"/>
   </g>
   <g id="line2d_24">
    <path clip-path="url(#p9f65db9596)" d="M 211.598876 28.178159 
L 228.156923 44.736207 
" style="fill:none;stroke:#ff8c00;stroke-linecap:square;stroke-width:0.5;"/>
   </g>
   <g id="line2d_25">
    <path clip-path="url(#p9f65db9596)" d="M 228.156923 44.736207 
L 244.714971 28.178159 
" style="fill:none;stroke:#0000ff;stroke-linecap:square;stroke-width:0.5;"/>
   </g>
   <g id="line2d_26">
    <path clip-path="url(#p9f65db9596)" d="M 236.435947 19.899135 
L 219.877899 36.457183 
" style="fill:none;stroke:#0000ff;stroke-linecap:square;stroke-width:0.2;"/>
   </g>
   <g id="line2d_27">
    <path clip-path="url(#p9f65db9596)" d="M 219.877899 19.899135 
L 236.435947 36.457183 
" style="fill:none;stroke:#ff8c00;stroke-linecap:square;stroke-width:0.2;"/>
   </g>
   <g id="line2d_28">
    <path clip-path="url(#p9f65db9596)" d="M 223.766308 63.303082 
" style="fill:none;stroke:#d62728;stroke-linecap:square;stroke-opacity:0;stroke-width:1.5;"/>
   </g>
   <g id="text_1">
    <!-- $\psi_0$ -->
    <g transform="translate(100.829077 61.203082)scale(0.1 -0.1)">
     <defs>
      <path d="M 24.859375 -1.21875 
Q 13.921875 0.59375 9.625 5.328125 
Q 4.34375 11.140625 6.640625 23 
L 12.796875 54.6875 
L 21.875 54.6875 
L 15.765625 23.34375 
Q 14.0625 14.40625 17.484375 10.6875 
Q 20.515625 7.46875 26.421875 6.78125 
L 35.6875 54.6875 
L 44.625 54.6875 
L 35.359375 6.84375 
Q 41.890625 7.515625 45.75 10.75 
Q 50.734375 14.84375 52.390625 23.390625 
L 58.453125 54.6875 
L 67.53125 54.6875 
L 61.375 23.046875 
Q 58.984375 10.75 51.5625 5.375 
Q 44.875 0.53125 33.796875 -1.171875 
L 29.984375 -20.796875 
L 21.046875 -20.796875 
z
" id="DejaVuSans-Oblique-968"/>
      <path d="M 31.78125 66.40625 
Q 24.171875 66.40625 20.328125 58.90625 
Q 16.5 51.421875 16.5 36.375 
Q 16.5 21.390625 20.328125 13.890625 
Q 24.171875 6.390625 31.78125 6.390625 
Q 39.453125 6.390625 43.28125 13.890625 
Q 47.125 21.390625 47.125 36.375 
Q 47.125 51.421875 43.28125 58.90625 
Q 39.453125 66.40625 31.78125 66.40625 
z
M 31.78125 74.21875 
Q 44.046875 74.21875 50.515625 64.515625 
Q 56.984375 54.828125 56.984375 36.375 
Q 56.984375 17.96875 50.515625 8.265625 
Q 44.046875 -1.421875 31.78125 -1.421875 
Q 19.53125 -1.421875 13.0625 8.265625 
Q 6.59375 17.96875 6.59375 36.375 
Q 6.59375 54.828125 13.0625 64.515625 
Q 19.53125 74.21875 31.78125 74.21875 
z
" id="DejaVuSans-48"/>
     </defs>
     <use transform="translate(0 0.3125)" xlink:href="#DejaVuSans-Oblique-968"/>
     <use transform="translate(65.966797 -16.09375)scale(0.7)" xlink:href="#DejaVuSans-48"/>
    </g>
   </g>
   <g id="text_2">
    <!-- $\psi_{Bell}$ -->
    <g transform="translate(182.787231 61.203082)scale(0.1 -0.1)">
     <defs>
      <path d="M 16.890625 72.90625 
L 42.09375 72.90625 
Q 52.34375 72.90625 57.421875 69.09375 
Q 62.5 65.28125 62.5 57.625 
Q 62.5 50.59375 58.125 45.484375 
Q 53.765625 40.375 46.6875 39.3125 
Q 52.734375 37.9375 55.765625 34.078125 
Q 58.796875 30.21875 58.796875 23.78125 
Q 58.796875 12.796875 50.65625 6.390625 
Q 42.53125 0 28.421875 0 
L 2.6875 0 
z
M 19.28125 34.8125 
L 14.109375 8.109375 
L 29.984375 8.109375 
Q 38.921875 8.109375 43.75 12.203125 
Q 48.578125 16.3125 48.578125 23.78125 
Q 48.578125 29.546875 45.375 32.171875 
Q 42.1875 34.8125 35.109375 34.8125 
z
M 25.09375 64.796875 
L 20.796875 42.828125 
L 35.5 42.828125 
Q 43.359375 42.828125 47.78125 46.234375 
Q 52.203125 49.65625 52.203125 55.71875 
Q 52.203125 60.453125 49.21875 62.625 
Q 46.234375 64.796875 39.703125 64.796875 
z
" id="DejaVuSans-Oblique-66"/>
      <path d="M 48.09375 32.234375 
Q 48.25 33.015625 48.3125 33.84375 
Q 48.390625 34.671875 48.390625 35.5 
Q 48.390625 41.453125 44.890625 44.921875 
Q 41.40625 48.390625 35.40625 48.390625 
Q 28.71875 48.390625 23.578125 44.15625 
Q 18.453125 39.9375 15.828125 32.171875 
z
M 55.90625 25.203125 
L 14.109375 25.203125 
Q 13.8125 23.34375 13.71875 22.265625 
Q 13.625 21.1875 13.625 20.40625 
Q 13.625 13.625 17.796875 9.90625 
Q 21.96875 6.203125 29.59375 6.203125 
Q 35.453125 6.203125 40.671875 7.515625 
Q 45.90625 8.84375 50.390625 11.375 
L 48.6875 2.484375 
Q 43.84375 0.53125 38.6875 -0.4375 
Q 33.546875 -1.421875 28.21875 -1.421875 
Q 16.84375 -1.421875 10.71875 4.015625 
Q 4.59375 9.46875 4.59375 19.484375 
Q 4.59375 28.03125 7.640625 35.375 
Q 10.6875 42.71875 16.609375 48.484375 
Q 20.40625 52.09375 25.65625 54.046875 
Q 30.90625 56 36.8125 56 
Q 46.09375 56 51.578125 50.4375 
Q 57.078125 44.875 57.078125 35.5 
Q 57.078125 33.25 56.78125 30.6875 
Q 56.5 28.125 55.90625 25.203125 
z
" id="DejaVuSans-Oblique-101"/>
      <path d="M 18.3125 75.984375 
L 27.296875 75.984375 
L 12.5 0 
L 3.515625 0 
z
" id="DejaVuSans-Oblique-108"/>
     </defs>
     <use transform="translate(0 0.3125)" xlink:href="#DejaVuSans-Oblique-968"/>
     <use transform="translate(65.966797 -16.09375)scale(0.7)" xlink:href="#DejaVuSans-Oblique-66"/>
     <use transform="translate(113.989258 -16.09375)scale(0.7)" xlink:href="#DejaVuSans-Oblique-101"/>
     <use transform="translate(157.055664 -16.09375)scale(0.7)" xlink:href="#DejaVuSans-Oblique-108"/>
     <use transform="translate(176.503906 -16.09375)scale(0.7)" xlink:href="#DejaVuSans-Oblique-108"/>
    </g>
   </g>
   <g id="text_3">
    <!-- $\psi_M$ -->
    <g transform="translate(223.766308 61.203082)scale(0.1 -0.1)">
     <defs>
      <path d="M 16.890625 72.90625 
L 31.6875 72.90625 
L 40.1875 23.78125 
L 68.40625 72.90625 
L 83.59375 72.90625 
L 69.390625 0 
L 59.8125 0 
L 72.21875 63.921875 
L 43.609375 14.015625 
L 33.984375 14.015625 
L 24.703125 64.109375 
L 12.3125 0 
L 2.6875 0 
z
" id="DejaVuSans-Oblique-77"/>
     </defs>
     <use transform="translate(0 0.3125)" xlink:href="#DejaVuSans-Oblique-968"/>
     <use transform="translate(65.966797 -16.09375)scale(0.7)" xlink:href="#DejaVuSans-Oblique-77"/>
    </g>
   </g>
   <g id="PolyCollection_1">
    <defs>
     <path d="M 111.073846 -55.400557 
L 111.073846 -55.400557 
L 111.061818 -55.775634 
L 111.025784 -56.149169 
L 110.965891 -56.519629 
L 110.882385 -56.88549 
L 110.775611 -57.245249 
L 110.646006 -57.597428 
L 110.494103 -57.940579 
L 110.320526 -58.273293 
L 110.125989 -58.594202 
L 109.911291 -58.901988 
L 109.677314 -59.195386 
L 109.42502 -59.47319 
L 109.155445 -59.734258 
L 108.869698 -59.977519 
L 108.568951 -60.201971 
L 108.254442 -60.406694 
L 107.927463 -60.590846 
L 107.589356 -60.753669 
L 107.241512 -60.894495 
L 106.885361 -61.012746 
L 106.522364 -61.107935 
L 106.154015 -61.179671 
L 105.781826 -61.227659 
L 105.407327 -61.251703 
L 105.032057 -61.251703 
L 104.657559 -61.227659 
L 104.28537 -61.179671 
L 103.917021 -61.107935 
L 103.554024 -61.012746 
L 103.197872 -60.894495 
L 102.850028 -60.753669 
L 102.511922 -60.590846 
L 102.184942 -60.406694 
L 101.870433 -60.201971 
L 101.569687 -59.977519 
L 101.283939 -59.734258 
L 101.014365 -59.47319 
L 100.762071 -59.195386 
L 100.528094 -58.901988 
L 100.313396 -58.594202 
L 100.118859 -58.273293 
L 99.945282 -57.940579 
L 99.793379 -57.597428 
L 99.663774 -57.245249 
L 99.556999 -56.88549 
L 99.473494 -56.519629 
L 99.413601 -56.149169 
L 99.377566 -55.775634 
L 99.365538 -55.400557 
L 99.365538 -55.400557 
L 99.365538 -55.400557 
L 99.377566 -55.02548 
L 99.413601 -54.651944 
L 99.473494 -54.281485 
L 99.556999 -53.915624 
L 99.663774 -53.555865 
L 99.793379 -53.203686 
L 99.945282 -52.860535 
L 100.118859 -52.527821 
L 100.313396 -52.206912 
L 100.528094 -51.899126 
L 100.762071 -51.605728 
L 101.014365 -51.327924 
L 101.283939 -51.066856 
L 101.569687 -50.823595 
L 101.870433 -50.599142 
L 102.184942 -50.39442 
L 102.511922 -50.210268 
L 102.850028 -50.047445 
L 103.197872 -49.906618 
L 103.554024 -49.788368 
L 103.917021 -49.693179 
L 104.28537 -49.621443 
L 104.657559 -49.573454 
L 105.032057 -49.549411 
L 105.407327 -49.549411 
L 105.781826 -49.573454 
L 106.154015 -49.621443 
L 106.522364 -49.693179 
L 106.885361 -49.788368 
L 107.241512 -49.906618 
L 107.589356 -50.047445 
L 107.927463 -50.210268 
L 108.254442 -50.39442 
L 108.568951 -50.599142 
L 108.869698 -50.823595 
L 109.155445 -51.066856 
L 109.42502 -51.327924 
L 109.677314 -51.605728 
L 109.911291 -51.899126 
L 110.125989 -52.206912 
L 110.320526 -52.527821 
L 110.494103 -52.860535 
L 110.646006 -53.203686 
L 110.775611 -53.555865 
L 110.882385 -53.915624 
L 110.965891 -54.281485 
L 111.025784 -54.651944 
L 111.061818 -55.02548 
L 111.073846 -55.400557 
z
" id="mc78c58bd18" style="stroke:#000000;stroke-opacity:0.8;"/>
    </defs>
    <g clip-path="url(#p9f65db9596)">
     <use style="fill:#2f1436;fill-opacity:0.8;stroke:#000000;stroke-opacity:0.8;" x="0" xlink:href="#mc78c58bd18" y="75.299692"/>
    </g>
   </g>
   <g id="PolyCollection_2">
    <defs>
     <path d="M 150.338281 -55.400557 
L 150.338281 -55.400557 
L 150.329776 -55.665776 
L 150.304296 -55.929906 
L 150.261945 -56.19186 
L 150.202898 -56.450563 
L 150.127397 -56.704951 
L 150.035752 -56.953979 
L 149.928341 -57.196624 
L 149.805603 -57.431888 
L 149.668045 -57.658805 
L 149.51623 -57.876443 
L 149.350784 -58.083906 
L 149.172385 -58.280343 
L 148.981767 -58.464946 
L 148.779713 -58.636958 
L 148.567053 -58.79567 
L 148.344661 -58.94043 
L 148.113452 -59.070645 
L 147.874375 -59.185779 
L 147.628412 -59.285358 
L 147.376575 -59.368974 
L 147.119897 -59.436283 
L 146.859435 -59.487008 
L 146.596258 -59.520941 
L 146.331447 -59.537942 
L 146.066091 -59.537942 
L 145.801281 -59.520941 
L 145.538104 -59.487008 
L 145.277641 -59.436283 
L 145.020964 -59.368974 
L 144.769127 -59.285358 
L 144.523164 -59.185779 
L 144.284087 -59.070645 
L 144.052877 -58.94043 
L 143.830486 -58.79567 
L 143.617826 -58.636958 
L 143.415772 -58.464946 
L 143.225154 -58.280343 
L 143.046755 -58.083906 
L 142.881308 -57.876443 
L 142.729494 -57.658805 
L 142.591935 -57.431888 
L 142.469198 -57.196624 
L 142.361786 -56.953979 
L 142.270142 -56.704951 
L 142.194641 -56.450563 
L 142.135594 -56.19186 
L 142.093243 -55.929906 
L 142.067762 -55.665776 
L 142.059257 -55.400557 
L 142.059257 -55.400557 
L 142.059257 -55.400557 
L 142.067762 -55.135337 
L 142.093243 -54.871208 
L 142.135594 -54.609254 
L 142.194641 -54.350551 
L 142.270142 -54.096163 
L 142.361786 -53.847135 
L 142.469198 -53.60449 
L 142.591935 -53.369226 
L 142.729494 -53.142309 
L 142.881308 -52.924671 
L 143.046755 -52.717208 
L 143.225154 -52.520771 
L 143.415772 -52.336167 
L 143.617826 -52.164156 
L 143.830486 -52.005444 
L 144.052877 -51.860683 
L 144.284087 -51.730469 
L 144.523164 -51.615335 
L 144.769127 -51.515756 
L 145.020964 -51.43214 
L 145.277641 -51.364831 
L 145.538104 -51.314106 
L 145.801281 -51.280173 
L 146.066091 -51.263172 
L 146.331447 -51.263172 
L 146.596258 -51.280173 
L 146.859435 -51.314106 
L 147.119897 -51.364831 
L 147.376575 -51.43214 
L 147.628412 -51.515756 
L 147.874375 -51.615335 
L 148.113452 -51.730469 
L 148.344661 -51.860683 
L 148.567053 -52.005444 
L 148.779713 -52.164156 
L 148.981767 -52.336167 
L 149.172385 -52.520771 
L 149.350784 -52.717208 
L 149.51623 -52.924671 
L 149.668045 -53.142309 
L 149.805603 -53.369226 
L 149.928341 -53.60449 
L 150.035752 -53.847135 
L 150.127397 -54.096163 
L 150.202898 -54.350551 
L 150.261945 -54.609254 
L 150.304296 -54.871208 
L 150.329776 -55.135337 
L 150.338281 -55.400557 
z
" id="mac18989270" style="stroke:#000000;stroke-opacity:0.8;stroke-width:0.707107;"/>
    </defs>
    <g clip-path="url(#p9f65db9596)">
     <use style="fill:#2f1436;fill-opacity:0.8;stroke:#000000;stroke-opacity:0.8;stroke-width:0.707107;" x="0" xlink:href="#mac18989270" y="75.299692"/>
    </g>
   </g>
   <g id="PolyCollection_3">
    <defs>
     <path d="M 158.617305 -47.121533 
L 158.617305 -47.121533 
L 158.6088 -47.386753 
L 158.583319 -47.650882 
L 158.540969 -47.912837 
L 158.481922 -48.171539 
L 158.40642 -48.425927 
L 158.314776 -48.674955 
L 158.207364 -48.9176 
L 158.084627 -49.152864 
L 157.947069 -49.379781 
L 157.795254 -49.597419 
L 157.629808 -49.804882 
L 157.451409 -50.001319 
L 157.26079 -50.185923 
L 157.058736 -50.357934 
L 156.846077 -50.516646 
L 156.623685 -50.661407 
L 156.392476 -50.791621 
L 156.153398 -50.906755 
L 155.907436 -51.006334 
L 155.655598 -51.08995 
L 155.398921 -51.157259 
L 155.138459 -51.207984 
L 154.875281 -51.241917 
L 154.610471 -51.258918 
L 154.345115 -51.258918 
L 154.080305 -51.241917 
L 153.817127 -51.207984 
L 153.556665 -51.157259 
L 153.299988 -51.08995 
L 153.04815 -51.006334 
L 152.802188 -50.906755 
L 152.56311 -50.791621 
L 152.331901 -50.661407 
L 152.109509 -50.516646 
L 151.89685 -50.357934 
L 151.694796 -50.185923 
L 151.504177 -50.001319 
L 151.325778 -49.804882 
L 151.160332 -49.597419 
L 151.008517 -49.379781 
L 150.870959 -49.152864 
L 150.748222 -48.9176 
L 150.64081 -48.674955 
L 150.549166 -48.425927 
L 150.473664 -48.171539 
L 150.414617 -47.912837 
L 150.372267 -47.650882 
L 150.346786 -47.386753 
L 150.338281 -47.121533 
L 150.338281 -47.121533 
L 150.338281 -47.121533 
L 150.346786 -46.856314 
L 150.372267 -46.592184 
L 150.414617 -46.33023 
L 150.473664 -46.071527 
L 150.549166 -45.817139 
L 150.64081 -45.568111 
L 150.748222 -45.325466 
L 150.870959 -45.090202 
L 151.008517 -44.863285 
L 151.160332 -44.645648 
L 151.325778 -44.438184 
L 151.504177 -44.241747 
L 151.694796 -44.057144 
L 151.89685 -43.885132 
L 152.109509 -43.72642 
L 152.331901 -43.58166 
L 152.56311 -43.451445 
L 152.802188 -43.336311 
L 153.04815 -43.236732 
L 153.299988 -43.153116 
L 153.556665 -43.085808 
L 153.817127 -43.035082 
L 154.080305 -43.00115 
L 154.345115 -42.984148 
L 154.610471 -42.984148 
L 154.875281 -43.00115 
L 155.138459 -43.035082 
L 155.398921 -43.085808 
L 155.655598 -43.153116 
L 155.907436 -43.236732 
L 156.153398 -43.336311 
L 156.392476 -43.451445 
L 156.623685 -43.58166 
L 156.846077 -43.72642 
L 157.058736 -43.885132 
L 157.26079 -44.057144 
L 157.451409 -44.241747 
L 157.629808 -44.438184 
L 157.795254 -44.645648 
L 157.947069 -44.863285 
L 158.084627 -45.090202 
L 158.207364 -45.325466 
L 158.314776 -45.568111 
L 158.40642 -45.817139 
L 158.481922 -46.071527 
L 158.540969 -46.33023 
L 158.583319 -46.592184 
L 158.6088 -46.856314 
L 158.617305 -47.121533 
z
" id="m89d43c4742" style="stroke:#000000;stroke-opacity:0.8;stroke-width:0.707107;"/>
    </defs>
    <g clip-path="url(#p9f65db9596)">
     <use style="fill:#2f1436;fill-opacity:0.8;stroke:#000000;stroke-opacity:0.8;stroke-width:0.707107;" x="0" xlink:href="#m89d43c4742" y="75.299692"/>
    </g>
   </g>
   <g id="PolyCollection_4">
    <defs>
     <path d="M 191.317358 -55.400557 
L 191.317358 -55.400557 
L 191.308853 -55.665776 
L 191.283373 -55.929906 
L 191.241022 -56.19186 
L 191.181975 -56.450563 
L 191.106474 -56.704951 
L 191.014829 -56.953979 
L 190.907417 -57.196624 
L 190.78468 -57.431888 
L 190.647122 -57.658805 
L 190.495307 -57.876443 
L 190.329861 -58.083906 
L 190.151462 -58.280343 
L 189.960844 -58.464946 
L 189.75879 -58.636958 
L 189.54613 -58.79567 
L 189.323738 -58.94043 
L 189.092529 -59.070645 
L 188.853452 -59.185779 
L 188.607489 -59.285358 
L 188.355651 -59.368974 
L 188.098974 -59.436283 
L 187.838512 -59.487008 
L 187.575335 -59.520941 
L 187.310524 -59.537942 
L 187.045168 -59.537942 
L 186.780358 -59.520941 
L 186.517181 -59.487008 
L 186.256718 -59.436283 
L 186.000041 -59.368974 
L 185.748203 -59.285358 
L 185.502241 -59.185779 
L 185.263163 -59.070645 
L 185.031954 -58.94043 
L 184.809562 -58.79567 
L 184.596903 -58.636958 
L 184.394849 -58.464946 
L 184.204231 -58.280343 
L 184.025832 -58.083906 
L 183.860385 -57.876443 
L 183.708571 -57.658805 
L 183.571012 -57.431888 
L 183.448275 -57.196624 
L 183.340863 -56.953979 
L 183.249219 -56.704951 
L 183.173718 -56.450563 
L 183.11467 -56.19186 
L 183.07232 -55.929906 
L 183.046839 -55.665776 
L 183.038334 -55.400557 
L 183.038334 -55.400557 
L 183.038334 -55.400557 
L 183.046839 -55.135337 
L 183.07232 -54.871208 
L 183.11467 -54.609254 
L 183.173718 -54.350551 
L 183.249219 -54.096163 
L 183.340863 -53.847135 
L 183.448275 -53.60449 
L 183.571012 -53.369226 
L 183.708571 -53.142309 
L 183.860385 -52.924671 
L 184.025832 -52.717208 
L 184.204231 -52.520771 
L 184.394849 -52.336167 
L 184.596903 -52.164156 
L 184.809562 -52.005444 
L 185.031954 -51.860683 
L 185.263163 -51.730469 
L 185.502241 -51.615335 
L 185.748203 -51.515756 
L 186.000041 -51.43214 
L 186.256718 -51.364831 
L 186.517181 -51.314106 
L 186.780358 -51.280173 
L 187.045168 -51.263172 
L 187.310524 -51.263172 
L 187.575335 -51.280173 
L 187.838512 -51.314106 
L 188.098974 -51.364831 
L 188.355651 -51.43214 
L 188.607489 -51.515756 
L 188.853452 -51.615335 
L 189.092529 -51.730469 
L 189.323738 -51.860683 
L 189.54613 -52.005444 
L 189.75879 -52.164156 
L 189.960844 -52.336167 
L 190.151462 -52.520771 
L 190.329861 -52.717208 
L 190.495307 -52.924671 
L 190.647122 -53.142309 
L 190.78468 -53.369226 
L 190.907417 -53.60449 
L 191.014829 -53.847135 
L 191.106474 -54.096163 
L 191.181975 -54.350551 
L 191.241022 -54.609254 
L 191.283373 -54.871208 
L 191.308853 -55.135337 
L 191.317358 -55.400557 
z
" id="mc715ca3e7d" style="stroke:#000000;stroke-opacity:0.8;stroke-width:0.707107;"/>
    </defs>
    <g clip-path="url(#p9f65db9596)">
     <use style="fill:#2f1436;fill-opacity:0.8;stroke:#000000;stroke-opacity:0.8;stroke-width:0.707107;" x="0" xlink:href="#mc715ca3e7d" y="75.299692"/>
    </g>
   </g>
   <g id="PolyCollection_5">
    <defs>
     <path d="M 191.317358 -38.842509 
L 191.317358 -38.842509 
L 191.308853 -39.107729 
L 191.283373 -39.371858 
L 191.241022 -39.633813 
L 191.181975 -39.892516 
L 191.106474 -40.146904 
L 191.014829 -40.395932 
L 190.907417 -40.638576 
L 190.78468 -40.87384 
L 190.647122 -41.100758 
L 190.495307 -41.318395 
L 190.329861 -41.525858 
L 190.151462 -41.722296 
L 189.960844 -41.906899 
L 189.75879 -42.07891 
L 189.54613 -42.237622 
L 189.323738 -42.382383 
L 189.092529 -42.512598 
L 188.853452 -42.627731 
L 188.607489 -42.72731 
L 188.355651 -42.810926 
L 188.098974 -42.878235 
L 187.838512 -42.92896 
L 187.575335 -42.962893 
L 187.310524 -42.979894 
L 187.045168 -42.979894 
L 186.780358 -42.962893 
L 186.517181 -42.92896 
L 186.256718 -42.878235 
L 186.000041 -42.810926 
L 185.748203 -42.72731 
L 185.502241 -42.627731 
L 185.263163 -42.512598 
L 185.031954 -42.382383 
L 184.809562 -42.237622 
L 184.596903 -42.07891 
L 184.394849 -41.906899 
L 184.204231 -41.722296 
L 184.025832 -41.525858 
L 183.860385 -41.318395 
L 183.708571 -41.100758 
L 183.571012 -40.87384 
L 183.448275 -40.638576 
L 183.340863 -40.395932 
L 183.249219 -40.146904 
L 183.173718 -39.892516 
L 183.11467 -39.633813 
L 183.07232 -39.371858 
L 183.046839 -39.107729 
L 183.038334 -38.842509 
L 183.038334 -38.842509 
L 183.038334 -38.842509 
L 183.046839 -38.57729 
L 183.07232 -38.31316 
L 183.11467 -38.051206 
L 183.173718 -37.792503 
L 183.249219 -37.538115 
L 183.340863 -37.289087 
L 183.448275 -37.046443 
L 183.571012 -36.811178 
L 183.708571 -36.584261 
L 183.860385 -36.366624 
L 184.025832 -36.15916 
L 184.204231 -35.962723 
L 184.394849 -35.77812 
L 184.596903 -35.606109 
L 184.809562 -35.447397 
L 185.031954 -35.302636 
L 185.263163 -35.172421 
L 185.502241 -35.057288 
L 185.748203 -34.957708 
L 186.000041 -34.874092 
L 186.256718 -34.806784 
L 186.517181 -34.756059 
L 186.780358 -34.722126 
L 187.045168 -34.705124 
L 187.310524 -34.705124 
L 187.575335 -34.722126 
L 187.838512 -34.756059 
L 188.098974 -34.806784 
L 188.355651 -34.874092 
L 188.607489 -34.957708 
L 188.853452 -35.057288 
L 189.092529 -35.172421 
L 189.323738 -35.302636 
L 189.54613 -35.447397 
L 189.75879 -35.606109 
L 189.960844 -35.77812 
L 190.151462 -35.962723 
L 190.329861 -36.15916 
L 190.495307 -36.366624 
L 190.647122 -36.584261 
L 190.78468 -36.811178 
L 190.907417 -37.046443 
L 191.014829 -37.289087 
L 191.106474 -37.538115 
L 191.181975 -37.792503 
L 191.241022 -38.051206 
L 191.283373 -38.31316 
L 191.308853 -38.57729 
L 191.317358 -38.842509 
z
" id="mf5c808a47f" style="stroke:#000000;stroke-opacity:0.8;stroke-width:0.707107;"/>
    </defs>
    <g clip-path="url(#p9f65db9596)">
     <use style="fill:#2f1436;fill-opacity:0.8;stroke:#000000;stroke-opacity:0.8;stroke-width:0.707107;" x="0" xlink:href="#mf5c808a47f" y="75.299692"/>
    </g>
   </g>
   <g id="PolyCollection_6">
    <defs>
     <path d="M 234.011077 -38.842509 
L 234.011077 -38.842509 
L 233.999049 -39.217586 
L 233.963014 -39.591122 
L 233.903121 -39.961581 
L 233.819616 -40.327442 
L 233.712841 -40.687201 
L 233.583236 -41.03938 
L 233.431333 -41.382531 
L 233.257757 -41.715245 
L 233.063219 -42.036154 
L 232.848521 -42.34394 
L 232.614545 -42.637338 
L 232.36225 -42.915142 
L 232.092676 -43.17621 
L 231.806928 -43.419471 
L 231.506182 -43.643924 
L 231.191673 -43.848646 
L 230.864693 -44.032798 
L 230.526587 -44.195621 
L 230.178743 -44.336448 
L 229.822591 -44.454698 
L 229.459595 -44.549887 
L 229.091245 -44.621623 
L 228.719057 -44.669611 
L 228.344558 -44.693655 
L 227.969288 -44.693655 
L 227.59479 -44.669611 
L 227.222601 -44.621623 
L 226.854251 -44.549887 
L 226.491255 -44.454698 
L 226.135103 -44.336448 
L 225.787259 -44.195621 
L 225.449153 -44.032798 
L 225.122173 -43.848646 
L 224.807664 -43.643924 
L 224.506918 -43.419471 
L 224.22117 -43.17621 
L 223.951596 -42.915142 
L 223.699302 -42.637338 
L 223.465325 -42.34394 
L 223.250627 -42.036154 
L 223.05609 -41.715245 
L 222.882513 -41.382531 
L 222.73061 -41.03938 
L 222.601005 -40.687201 
L 222.49423 -40.327442 
L 222.410725 -39.961581 
L 222.350832 -39.591122 
L 222.314798 -39.217586 
L 222.30277 -38.842509 
L 222.30277 -38.842509 
L 222.30277 -38.842509 
L 222.314798 -38.467432 
L 222.350832 -38.093897 
L 222.410725 -37.723437 
L 222.49423 -37.357577 
L 222.601005 -36.997817 
L 222.73061 -36.645639 
L 222.882513 -36.302487 
L 223.05609 -35.969774 
L 223.250627 -35.648864 
L 223.465325 -35.341079 
L 223.699302 -35.047681 
L 223.951596 -34.769877 
L 224.22117 -34.508808 
L 224.506918 -34.265548 
L 224.807664 -34.041095 
L 225.122173 -33.836372 
L 225.449153 -33.652221 
L 225.787259 -33.489398 
L 226.135103 -33.348571 
L 226.491255 -33.230321 
L 226.854251 -33.135132 
L 227.222601 -33.063396 
L 227.59479 -33.015407 
L 227.969288 -32.991364 
L 228.344558 -32.991364 
L 228.719057 -33.015407 
L 229.091245 -33.063396 
L 229.459595 -33.135132 
L 229.822591 -33.230321 
L 230.178743 -33.348571 
L 230.526587 -33.489398 
L 230.864693 -33.652221 
L 231.191673 -33.836372 
L 231.506182 -34.041095 
L 231.806928 -34.265548 
L 232.092676 -34.508808 
L 232.36225 -34.769877 
L 232.614545 -35.047681 
L 232.848521 -35.341079 
L 233.063219 -35.648864 
L 233.257757 -35.969774 
L 233.431333 -36.302487 
L 233.583236 -36.645639 
L 233.712841 -36.997817 
L 233.819616 -37.357577 
L 233.903121 -37.723437 
L 233.963014 -38.093897 
L 233.999049 -38.467432 
L 234.011077 -38.842509 
z
" id="m05dde749f8" style="stroke:#000000;stroke-opacity:0.8;stroke-width:1;"/>
    </defs>
    <g clip-path="url(#p9f65db9596)">
     <use style="fill:#2f1436;fill-opacity:0.8;stroke:#000000;stroke-opacity:0.8;stroke-width:1;" x="0" xlink:href="#m05dde749f8" y="75.299692"/>
    </g>
   </g>
   <g id="line2d_29">
    <path clip-path="url(#p9f65db9596)" d="M 105.219692 19.899135 
L 111.073846 19.899135 
" style="fill:none;stroke:#000000;stroke-linecap:square;"/>
   </g>
   <g id="line2d_30">
    <path clip-path="url(#p9f65db9596)" d="M 146.198769 19.899135 
L 150.338281 19.899135 
" style="fill:none;stroke:#000000;stroke-linecap:square;stroke-width:0.707107;"/>
   </g>
   <g id="line2d_31">
    <path clip-path="url(#p9f65db9596)" d="M 154.477793 28.178159 
L 158.617305 28.178159 
" style="fill:none;stroke:#000000;stroke-linecap:square;stroke-width:0.707107;"/>
   </g>
   <g id="line2d_32">
    <path clip-path="url(#p9f65db9596)" d="M 187.177846 19.899135 
L 191.317358 19.899135 
" style="fill:none;stroke:#000000;stroke-linecap:square;stroke-width:0.707107;"/>
   </g>
   <g id="line2d_33">
    <path clip-path="url(#p9f65db9596)" d="M 187.177846 36.457183 
L 191.317358 36.457183 
" style="fill:none;stroke:#000000;stroke-linecap:square;stroke-width:0.707107;"/>
   </g>
   <g id="line2d_34">
    <path clip-path="url(#p9f65db9596)" d="M 228.156923 36.457183 
L 234.011077 36.457183 
" style="fill:none;stroke:#000000;stroke-linecap:square;stroke-width:1;"/>
   </g>
  </g>
 </g>
 <defs>
  <clipPath id="p9f65db9596">
   <rect height="56.851268" width="228.312" x="40.824" y="9.035963"/>
  </clipPath>
 </defs>
</svg>
