<?xml version="1.0" encoding="utf-8" standalone="no"?>
<!DOCTYPE svg PUBLIC "-//W3C//DTD SVG 1.1//EN"
  "http://www.w3.org/Graphics/SVG/1.1/DTD/svg11.dtd">
<!-- Created with matplotlib (https://matplotlib.org/) -->
<svg height="55.273263pt" version="1.1" viewBox="0 0 293.76 55.273263" width="293.76pt" xmlns="http://www.w3.org/2000/svg" xmlns:xlink="http://www.w3.org/1999/xlink">
 <metadata>
  <rdf:RDF xmlns:cc="http://creativecommons.org/ns#" xmlns:dc="http://purl.org/dc/elements/1.1/" xmlns:rdf="http://www.w3.org/1999/02/22-rdf-syntax-ns#">
   <cc:Work>
    <dc:type rdf:resource="http://purl.org/dc/dcmitype/StillImage"/>
    <dc:date>2021-05-31T12:16:14.942200</dc:date>
    <dc:format>image/svg+xml</dc:format>
    <dc:creator>
     <cc:Agent>
      <dc:title>Matplotlib v3.3.2, https://matplotlib.org/</dc:title>
     </cc:Agent>
    </dc:creator>
   </cc:Work>
  </rdf:RDF>
 </metadata>
 <defs>
  <style type="text/css">*{stroke-linecap:butt;stroke-linejoin:round;}</style>
 </defs>
 <g id="figure_1">
  <g id="patch_1">
   <path d="M 0 55.273263 
L 293.76 55.273263 
L 293.76 0 
L 0 0 
z
" style="fill:none;"/>
  </g>
  <g id="axes_1">
   <g id="LineCollection_1">
    <path clip-path="url(#p4f18aedddb)" d="M 133.042358 20.202764 
L 144.715453 20.202764 
" style="fill:none;stroke:#0000ff;stroke-width:0.2;"/>
   </g>
   <g id="LineCollection_2">
    <path clip-path="url(#p4f18aedddb)" d="M 173.898189 20.202764 
L 185.571284 20.202764 
" style="fill:none;stroke:#0000ff;stroke-width:0.2;"/>
   </g>
   <g id="LineCollection_3">
    <path clip-path="url(#p4f18aedddb)" d="M 214.754021 20.202764 
L 226.427116 20.202764 
" style="fill:none;stroke:#0000ff;stroke-width:0.2;"/>
   </g>
   <g id="line2d_1">
    <path clip-path="url(#p4f18aedddb)" d="M 133.042358 8.529669 
L 144.715453 8.529669 
" style="fill:none;stroke:#0000ff;stroke-linecap:square;stroke-width:0.5;"/>
   </g>
   <g id="line2d_2">
    <path clip-path="url(#p4f18aedddb)" d="M 144.715453 8.529669 
L 144.715453 31.875859 
" style="fill:none;stroke:#0000ff;stroke-linecap:square;stroke-width:0.5;"/>
   </g>
   <g id="line2d_3">
    <path clip-path="url(#p4f18aedddb)" d="M 144.715453 31.875859 
L 133.042358 31.875859 
" style="fill:none;stroke:#0000ff;stroke-linecap:square;stroke-width:0.5;"/>
   </g>
   <g id="line2d_4">
    <path clip-path="url(#p4f18aedddb)" d="M 133.042358 31.875859 
L 133.042358 8.529669 
" style="fill:none;stroke:#0000ff;stroke-linecap:square;stroke-width:0.5;"/>
   </g>
   <g id="line2d_5">
    <path clip-path="url(#p4f18aedddb)" d="M 134.501495 46.467227 
" style="fill:none;stroke:#1f77b4;stroke-linecap:square;stroke-opacity:0;stroke-width:1.5;"/>
   </g>
   <g id="line2d_6">
    <path clip-path="url(#p4f18aedddb)" d="M 173.898189 8.529669 
L 185.571284 8.529669 
" style="fill:none;stroke:#0000ff;stroke-linecap:square;stroke-width:0.5;"/>
   </g>
   <g id="line2d_7">
    <path clip-path="url(#p4f18aedddb)" d="M 185.571284 8.529669 
L 185.571284 31.875859 
" style="fill:none;stroke:#0000ff;stroke-linecap:square;stroke-width:0.5;"/>
   </g>
   <g id="line2d_8">
    <path clip-path="url(#p4f18aedddb)" d="M 185.571284 31.875859 
L 173.898189 31.875859 
" style="fill:none;stroke:#0000ff;stroke-linecap:square;stroke-width:0.5;"/>
   </g>
   <g id="line2d_9">
    <path clip-path="url(#p4f18aedddb)" d="M 173.898189 31.875859 
L 173.898189 8.529669 
" style="fill:none;stroke:#0000ff;stroke-linecap:square;stroke-width:0.5;"/>
   </g>
   <g id="line2d_10">
    <path clip-path="url(#p4f18aedddb)" d="M 175.357326 46.467227 
" style="fill:none;stroke:#ff7f0e;stroke-linecap:square;stroke-opacity:0;stroke-width:1.5;"/>
   </g>
   <g id="line2d_11">
    <path clip-path="url(#p4f18aedddb)" d="M 214.754021 8.529669 
L 226.427116 8.529669 
" style="fill:none;stroke:#0000ff;stroke-linecap:square;stroke-width:0.5;"/>
   </g>
   <g id="line2d_12">
    <path clip-path="url(#p4f18aedddb)" d="M 226.427116 8.529669 
L 226.427116 31.875859 
" style="fill:none;stroke:#0000ff;stroke-linecap:square;stroke-width:0.5;"/>
   </g>
   <g id="line2d_13">
    <path clip-path="url(#p4f18aedddb)" d="M 226.427116 31.875859 
L 214.754021 31.875859 
" style="fill:none;stroke:#0000ff;stroke-linecap:square;stroke-width:0.5;"/>
   </g>
   <g id="line2d_14">
    <path clip-path="url(#p4f18aedddb)" d="M 214.754021 31.875859 
L 214.754021 8.529669 
" style="fill:none;stroke:#0000ff;stroke-linecap:square;stroke-width:0.5;"/>
   </g>
   <g id="line2d_15">
    <path clip-path="url(#p4f18aedddb)" d="M 216.213158 46.467227 
" style="fill:none;stroke:#2ca02c;stroke-linecap:square;stroke-opacity:0;stroke-width:1.5;"/>
   </g>
   <g id="text_1">
    <!-- $\psi_0$ -->
    <g transform="translate(134.501495 44.367227)scale(0.1 -0.1)">
     <defs>
      <path d="M 24.859375 -1.21875 
Q 13.921875 0.59375 9.625 5.328125 
Q 4.34375 11.140625 6.640625 23 
L 12.796875 54.6875 
L 21.875 54.6875 
L 15.765625 23.34375 
Q 14.0625 14.40625 17.484375 10.6875 
Q 20.515625 7.46875 26.421875 6.78125 
L 35.6875 54.6875 
L 44.625 54.6875 
L 35.359375 6.84375 
Q 41.890625 7.515625 45.75 10.75 
Q 50.734375 14.84375 52.390625 23.390625 
L 58.453125 54.6875 
L 67.53125 54.6875 
L 61.375 23.046875 
Q 58.984375 10.75 51.5625 5.375 
Q 44.875 0.53125 33.796875 -1.171875 
L 29.984375 -20.796875 
L 21.046875 -20.796875 
z
" id="DejaVuSans-Oblique-968"/>
      <path d="M 31.78125 66.40625 
Q 24.171875 66.40625 20.328125 58.90625 
Q 16.5 51.421875 16.5 36.375 
Q 16.5 21.390625 20.328125 13.890625 
Q 24.171875 6.390625 31.78125 6.390625 
Q 39.453125 6.390625 43.28125 13.890625 
Q 47.125 21.390625 47.125 36.375 
Q 47.125 51.421875 43.28125 58.90625 
Q 39.453125 66.40625 31.78125 66.40625 
z
M 31.78125 74.21875 
Q 44.046875 74.21875 50.515625 64.515625 
Q 56.984375 54.828125 56.984375 36.375 
Q 56.984375 17.96875 50.515625 8.265625 
Q 44.046875 -1.421875 31.78125 -1.421875 
Q 19.53125 -1.421875 13.0625 8.265625 
Q 6.59375 17.96875 6.59375 36.375 
Q 6.59375 54.828125 13.0625 64.515625 
Q 19.53125 74.21875 31.78125 74.21875 
z
" id="DejaVuSans-48"/>
     </defs>
     <use transform="translate(0 0.3125)" xlink:href="#DejaVuSans-Oblique-968"/>
     <use transform="translate(65.966797 -16.09375)scale(0.7)" xlink:href="#DejaVuSans-48"/>
    </g>
   </g>
   <g id="text_2">
    <!-- $\psi_M$ -->
    <g transform="translate(216.213158 44.367227)scale(0.1 -0.1)">
     <defs>
      <path d="M 16.890625 72.90625 
L 31.6875 72.90625 
L 40.1875 23.78125 
L 68.40625 72.90625 
L 83.59375 72.90625 
L 69.390625 0 
L 59.8125 0 
L 72.21875 63.921875 
L 43.609375 14.015625 
L 33.984375 14.015625 
L 24.703125 64.109375 
L 12.3125 0 
L 2.6875 0 
z
" id="DejaVuSans-Oblique-77"/>
     </defs>
     <use transform="translate(0 0.3125)" xlink:href="#DejaVuSans-Oblique-968"/>
     <use transform="translate(65.966797 -16.09375)scale(0.7)" xlink:href="#DejaVuSans-Oblique-77"/>
    </g>
   </g>
   <g id="PolyCollection_1">
    <defs>
     <path d="M 144.715453 -40.907046 
L 144.715453 -40.907046 
L 144.703461 -41.280995 
L 144.667535 -41.653407 
L 144.607822 -42.022753 
L 144.524568 -42.387513 
L 144.418114 -42.74619 
L 144.288899 -43.09731 
L 144.137453 -43.439429 
L 143.964398 -43.771143 
L 143.770446 -44.091087 
L 143.556394 -44.397947 
L 143.323121 -44.690462 
L 143.071585 -44.96743 
L 142.802821 -45.227714 
L 142.517933 -45.470243 
L 142.218091 -45.694021 
L 141.904528 -45.898128 
L 141.578532 -46.081725 
L 141.241442 -46.244059 
L 140.894645 -46.384462 
L 140.539564 -46.502357 
L 140.177659 -46.597259 
L 139.810418 -46.66878 
L 139.439348 -46.716624 
L 139.065976 -46.740595 
L 138.691835 -46.740595 
L 138.318462 -46.716624 
L 137.947393 -46.66878 
L 137.580151 -46.597259 
L 137.218247 -46.502357 
L 136.863166 -46.384462 
L 136.516368 -46.244059 
L 136.179279 -46.081725 
L 135.853282 -45.898128 
L 135.539719 -45.694021 
L 135.239878 -45.470243 
L 134.954989 -45.227714 
L 134.686225 -44.96743 
L 134.43469 -44.690462 
L 134.201417 -44.397947 
L 133.987364 -44.091087 
L 133.793412 -43.771143 
L 133.620358 -43.439429 
L 133.468912 -43.09731 
L 133.339696 -42.74619 
L 133.233243 -42.387513 
L 133.149989 -42.022753 
L 133.090276 -41.653407 
L 133.05435 -41.280995 
L 133.042358 -40.907046 
L 133.042358 -40.907046 
L 133.042358 -40.907046 
L 133.05435 -40.533097 
L 133.090276 -40.160685 
L 133.149989 -39.79134 
L 133.233243 -39.426579 
L 133.339696 -39.067902 
L 133.468912 -38.716783 
L 133.620358 -38.374663 
L 133.793412 -38.04295 
L 133.987364 -37.723006 
L 134.201417 -37.416146 
L 134.43469 -37.123631 
L 134.686225 -36.846662 
L 134.954989 -36.586379 
L 135.239878 -36.34385 
L 135.539719 -36.120072 
L 135.853282 -35.915965 
L 136.179279 -35.732367 
L 136.516368 -35.570034 
L 136.863166 -35.429631 
L 137.218247 -35.311736 
L 137.580151 -35.216833 
L 137.947393 -35.145313 
L 138.318462 -35.097469 
L 138.691835 -35.073498 
L 139.065976 -35.073498 
L 139.439348 -35.097469 
L 139.810418 -35.145313 
L 140.177659 -35.216833 
L 140.539564 -35.311736 
L 140.894645 -35.429631 
L 141.241442 -35.570034 
L 141.578532 -35.732367 
L 141.904528 -35.915965 
L 142.218091 -36.120072 
L 142.517933 -36.34385 
L 142.802821 -36.586379 
L 143.071585 -36.846662 
L 143.323121 -37.123631 
L 143.556394 -37.416146 
L 143.770446 -37.723006 
L 143.964398 -38.04295 
L 144.137453 -38.374663 
L 144.288899 -38.716783 
L 144.418114 -39.067902 
L 144.524568 -39.426579 
L 144.607822 -39.79134 
L 144.667535 -40.160685 
L 144.703461 -40.533097 
L 144.715453 -40.907046 
z
" id="md469a51e5e" style="stroke:#000000;stroke-opacity:0.8;"/>
    </defs>
    <g clip-path="url(#p4f18aedddb)">
     <use style="fill:#2f1436;fill-opacity:0.8;stroke:#000000;stroke-opacity:0.8;" x="0" xlink:href="#md469a51e5e" y="55.273263"/>
    </g>
   </g>
   <g id="PolyCollection_2">
    <defs>
     <path d="M 183.861799 -40.907046 
L 183.861799 -40.907046 
L 183.85332 -41.171468 
L 183.827916 -41.434803 
L 183.785692 -41.69597 
L 183.726823 -41.953895 
L 183.651549 -42.207518 
L 183.56018 -42.455797 
L 183.453091 -42.697711 
L 183.330723 -42.932268 
L 183.193579 -43.158503 
L 183.042221 -43.375486 
L 182.877272 -43.582325 
L 182.699409 -43.778171 
L 182.509364 -43.96222 
L 182.307918 -44.133713 
L 182.095898 -44.291948 
L 181.874175 -44.436274 
L 181.643661 -44.566097 
L 181.405303 -44.680884 
L 181.16008 -44.780164 
L 180.909 -44.863528 
L 180.653095 -44.930634 
L 180.393416 -44.981207 
L 180.13103 -45.015038 
L 179.867016 -45.031988 
L 179.602458 -45.031988 
L 179.338444 -45.015038 
L 179.076058 -44.981207 
L 178.816379 -44.930634 
L 178.560474 -44.863528 
L 178.309394 -44.780164 
L 178.064171 -44.680884 
L 177.825813 -44.566097 
L 177.595298 -44.436274 
L 177.373576 -44.291948 
L 177.161556 -44.133713 
L 176.960109 -43.96222 
L 176.770064 -43.778171 
L 176.592202 -43.582325 
L 176.427253 -43.375486 
L 176.275895 -43.158503 
L 176.13875 -42.932268 
L 176.016382 -42.697711 
L 175.909294 -42.455797 
L 175.817925 -42.207518 
L 175.742651 -41.953895 
L 175.683781 -41.69597 
L 175.641558 -41.434803 
L 175.616154 -41.171468 
L 175.607675 -40.907046 
L 175.607675 -40.907046 
L 175.607675 -40.907046 
L 175.616154 -40.642625 
L 175.641558 -40.379289 
L 175.683781 -40.118123 
L 175.742651 -39.860198 
L 175.817925 -39.606575 
L 175.909294 -39.358296 
L 176.016382 -39.116381 
L 176.13875 -38.881824 
L 176.275895 -38.65559 
L 176.427253 -38.438607 
L 176.592202 -38.231767 
L 176.770064 -38.035921 
L 176.960109 -37.851873 
L 177.161556 -37.680379 
L 177.373576 -37.522144 
L 177.595298 -37.377819 
L 177.825813 -37.247996 
L 178.064171 -37.133209 
L 178.309394 -37.033929 
L 178.560474 -36.950565 
L 178.816379 -36.883458 
L 179.076058 -36.832886 
L 179.338444 -36.799055 
L 179.602458 -36.782105 
L 179.867016 -36.782105 
L 180.13103 -36.799055 
L 180.393416 -36.832886 
L 180.653095 -36.883458 
L 180.909 -36.950565 
L 181.16008 -37.033929 
L 181.405303 -37.133209 
L 181.643661 -37.247996 
L 181.874175 -37.377819 
L 182.095898 -37.522144 
L 182.307918 -37.680379 
L 182.509364 -37.851873 
L 182.699409 -38.035921 
L 182.877272 -38.231767 
L 183.042221 -38.438607 
L 183.193579 -38.65559 
L 183.330723 -38.881824 
L 183.453091 -39.116381 
L 183.56018 -39.358296 
L 183.651549 -39.606575 
L 183.726823 -39.860198 
L 183.785692 -40.118123 
L 183.827916 -40.379289 
L 183.85332 -40.642625 
L 183.861799 -40.907046 
z
" id="m2f97fe8e33" style="stroke:#000000;stroke-opacity:0.8;stroke-width:0.707107;"/>
    </defs>
    <g clip-path="url(#p4f18aedddb)">
     <use style="fill:#2f1436;fill-opacity:0.8;stroke:#000000;stroke-opacity:0.8;stroke-width:0.707107;" x="0" xlink:href="#m2f97fe8e33" y="55.273263"/>
    </g>
   </g>
   <g id="PolyCollection_3">
    <defs>
     <path d="M 183.861799 -29.233952 
L 183.861799 -29.233952 
L 183.85332 -29.498373 
L 183.827916 -29.761709 
L 183.785692 -30.022875 
L 183.726823 -30.2808 
L 183.651549 -30.534423 
L 183.56018 -30.782702 
L 183.453091 -31.024617 
L 183.330723 -31.259173 
L 183.193579 -31.485408 
L 183.042221 -31.702391 
L 182.877272 -31.90923 
L 182.699409 -32.105077 
L 182.509364 -32.289125 
L 182.307918 -32.460619 
L 182.095898 -32.618853 
L 181.874175 -32.763179 
L 181.643661 -32.893002 
L 181.405303 -33.007789 
L 181.16008 -33.107069 
L 180.909 -33.190433 
L 180.653095 -33.25754 
L 180.393416 -33.308112 
L 180.13103 -33.341943 
L 179.867016 -33.358893 
L 179.602458 -33.358893 
L 179.338444 -33.341943 
L 179.076058 -33.308112 
L 178.816379 -33.25754 
L 178.560474 -33.190433 
L 178.309394 -33.107069 
L 178.064171 -33.007789 
L 177.825813 -32.893002 
L 177.595298 -32.763179 
L 177.373576 -32.618853 
L 177.161556 -32.460619 
L 176.960109 -32.289125 
L 176.770064 -32.105077 
L 176.592202 -31.90923 
L 176.427253 -31.702391 
L 176.275895 -31.485408 
L 176.13875 -31.259173 
L 176.016382 -31.024617 
L 175.909294 -30.782702 
L 175.817925 -30.534423 
L 175.742651 -30.2808 
L 175.683781 -30.022875 
L 175.641558 -29.761709 
L 175.616154 -29.498373 
L 175.607675 -29.233952 
L 175.607675 -29.233952 
L 175.607675 -29.233952 
L 175.616154 -28.96953 
L 175.641558 -28.706195 
L 175.683781 -28.445028 
L 175.742651 -28.187103 
L 175.817925 -27.93348 
L 175.909294 -27.685201 
L 176.016382 -27.443286 
L 176.13875 -27.20873 
L 176.275895 -26.982495 
L 176.427253 -26.765512 
L 176.592202 -26.558673 
L 176.770064 -26.362826 
L 176.960109 -26.178778 
L 177.161556 -26.007284 
L 177.373576 -25.84905 
L 177.595298 -25.704724 
L 177.825813 -25.574901 
L 178.064171 -25.460114 
L 178.309394 -25.360834 
L 178.560474 -25.27747 
L 178.816379 -25.210363 
L 179.076058 -25.159791 
L 179.338444 -25.12596 
L 179.602458 -25.10901 
L 179.867016 -25.10901 
L 180.13103 -25.12596 
L 180.393416 -25.159791 
L 180.653095 -25.210363 
L 180.909 -25.27747 
L 181.16008 -25.360834 
L 181.405303 -25.460114 
L 181.643661 -25.574901 
L 181.874175 -25.704724 
L 182.095898 -25.84905 
L 182.307918 -26.007284 
L 182.509364 -26.178778 
L 182.699409 -26.362826 
L 182.877272 -26.558673 
L 183.042221 -26.765512 
L 183.193579 -26.982495 
L 183.330723 -27.20873 
L 183.453091 -27.443286 
L 183.56018 -27.685201 
L 183.651549 -27.93348 
L 183.726823 -28.187103 
L 183.785692 -28.445028 
L 183.827916 -28.706195 
L 183.85332 -28.96953 
L 183.861799 -29.233952 
z
" id="mde91dd82e5" style="stroke:#000000;stroke-opacity:0.8;stroke-width:0.707107;"/>
    </defs>
    <g clip-path="url(#p4f18aedddb)">
     <use style="fill:#2f1436;fill-opacity:0.8;stroke:#000000;stroke-opacity:0.8;stroke-width:0.707107;" x="0" xlink:href="#mde91dd82e5" y="55.273263"/>
    </g>
   </g>
   <g id="PolyCollection_4">
    <defs>
     <path d="M 226.427115 -40.907046 
L 226.427115 -40.907046 
L 226.415124 -41.280995 
L 226.379197 -41.653407 
L 226.319485 -42.022753 
L 226.23623 -42.387513 
L 226.129777 -42.74619 
L 226.000562 -43.09731 
L 225.849116 -43.439429 
L 225.676061 -43.771142 
L 225.482109 -44.091086 
L 225.268057 -44.397947 
L 225.034784 -44.690462 
L 224.783248 -44.96743 
L 224.514484 -45.227714 
L 224.229596 -45.470243 
L 223.929754 -45.69402 
L 223.616191 -45.898127 
L 223.290195 -46.081725 
L 222.953105 -46.244059 
L 222.606308 -46.384461 
L 222.251227 -46.502356 
L 221.889322 -46.597259 
L 221.522081 -46.668779 
L 221.151011 -46.716623 
L 220.777639 -46.740595 
L 220.403498 -46.740595 
L 220.030126 -46.716623 
L 219.659056 -46.668779 
L 219.291815 -46.597259 
L 218.92991 -46.502356 
L 218.574829 -46.384461 
L 218.228031 -46.244059 
L 217.890942 -46.081725 
L 217.564946 -45.898127 
L 217.251383 -45.69402 
L 216.951541 -45.470243 
L 216.666653 -45.227714 
L 216.397889 -44.96743 
L 216.146353 -44.690462 
L 215.91308 -44.397947 
L 215.699028 -44.091086 
L 215.505076 -43.771142 
L 215.332021 -43.439429 
L 215.180575 -43.09731 
L 215.05136 -42.74619 
L 214.944906 -42.387513 
L 214.861652 -42.022753 
L 214.801939 -41.653407 
L 214.766013 -41.280995 
L 214.754021 -40.907046 
L 214.754021 -40.907046 
L 214.754021 -40.907046 
L 214.766013 -40.533097 
L 214.801939 -40.160685 
L 214.861652 -39.79134 
L 214.944906 -39.426579 
L 215.05136 -39.067902 
L 215.180575 -38.716783 
L 215.332021 -38.374663 
L 215.505076 -38.04295 
L 215.699028 -37.723006 
L 215.91308 -37.416146 
L 216.146353 -37.123631 
L 216.397889 -36.846662 
L 216.666653 -36.586379 
L 216.951541 -36.34385 
L 217.251383 -36.120072 
L 217.564946 -35.915965 
L 217.890942 -35.732368 
L 218.228031 -35.570034 
L 218.574829 -35.429631 
L 218.92991 -35.311736 
L 219.291815 -35.216834 
L 219.659056 -35.145313 
L 220.030126 -35.097469 
L 220.403498 -35.073498 
L 220.777639 -35.073498 
L 221.151011 -35.097469 
L 221.522081 -35.145313 
L 221.889322 -35.216834 
L 222.251227 -35.311736 
L 222.606308 -35.429631 
L 222.953105 -35.570034 
L 223.290195 -35.732368 
L 223.616191 -35.915965 
L 223.929754 -36.120072 
L 224.229596 -36.34385 
L 224.514484 -36.586379 
L 224.783248 -36.846662 
L 225.034784 -37.123631 
L 225.268057 -37.416146 
L 225.482109 -37.723006 
L 225.676061 -38.04295 
L 225.849116 -38.374663 
L 226.000562 -38.716783 
L 226.129777 -39.067902 
L 226.23623 -39.426579 
L 226.319485 -39.79134 
L 226.379197 -40.160685 
L 226.415124 -40.533097 
L 226.427115 -40.907046 
z
" id="mb13987f5ae" style="stroke:#000000;stroke-opacity:0.8;stroke-width:1;"/>
    </defs>
    <g clip-path="url(#p4f18aedddb)">
     <use style="fill:#2f1436;fill-opacity:0.8;stroke:#000000;stroke-opacity:0.8;stroke-width:1;" x="0" xlink:href="#mb13987f5ae" y="55.273263"/>
    </g>
   </g>
   <g id="line2d_16">
    <path clip-path="url(#p4f18aedddb)" d="M 138.878905 14.366217 
L 144.715453 14.366217 
" style="fill:none;stroke:#000000;stroke-linecap:square;"/>
   </g>
   <g id="line2d_17">
    <path clip-path="url(#p4f18aedddb)" d="M 179.734737 14.366217 
L 183.861799 14.366217 
" style="fill:none;stroke:#000000;stroke-linecap:square;stroke-width:0.707107;"/>
   </g>
   <g id="line2d_18">
    <path clip-path="url(#p4f18aedddb)" d="M 179.734737 26.039312 
L 183.861799 26.039312 
" style="fill:none;stroke:#000000;stroke-linecap:square;stroke-width:0.707107;"/>
   </g>
   <g id="line2d_19">
    <path clip-path="url(#p4f18aedddb)" d="M 220.590568 14.366217 
L 226.427115 14.366217 
" style="fill:none;stroke:#000000;stroke-linecap:square;stroke-width:1;"/>
   </g>
  </g>
 </g>
 <defs>
  <clipPath id="p4f18aedddb">
   <rect height="41.731314" width="221.7888" x="39.6576" y="6.632792"/>
  </clipPath>
 </defs>
</svg>
