<?xml version="1.0" encoding="utf-8" standalone="no"?>
<!DOCTYPE svg PUBLIC "-//W3C//DTD SVG 1.1//EN"
  "http://www.w3.org/Graphics/SVG/1.1/DTD/svg11.dtd">
<!-- Created with matplotlib (https://matplotlib.org/) -->
<svg height="55.097514pt" version="1.1" viewBox="0 0 285.12 55.097514" width="285.12pt" xmlns="http://www.w3.org/2000/svg" xmlns:xlink="http://www.w3.org/1999/xlink">
 <metadata>
  <rdf:RDF xmlns:cc="http://creativecommons.org/ns#" xmlns:dc="http://purl.org/dc/elements/1.1/" xmlns:rdf="http://www.w3.org/1999/02/22-rdf-syntax-ns#">
   <cc:Work>
    <dc:type rdf:resource="http://purl.org/dc/dcmitype/StillImage"/>
    <dc:date>2021-05-31T10:31:35.682778</dc:date>
    <dc:format>image/svg+xml</dc:format>
    <dc:creator>
     <cc:Agent>
      <dc:title>Matplotlib v3.3.2, https://matplotlib.org/</dc:title>
     </cc:Agent>
    </dc:creator>
   </cc:Work>
  </rdf:RDF>
 </metadata>
 <defs>
  <style type="text/css">*{stroke-linecap:butt;stroke-linejoin:round;}</style>
 </defs>
 <g id="figure_1">
  <g id="patch_1">
   <path d="M 0 55.097514 
L 285.12 55.097514 
L 285.12 0 
L 0 0 
z
" style="fill:none;"/>
  </g>
  <g id="axes_1">
   <g id="LineCollection_1">
    <path clip-path="url(#p91224647ce)" d="M 125.761038 20.138526 
L 137.397016 20.138526 
" style="fill:none;stroke:#0000ff;stroke-width:0.2;"/>
   </g>
   <g id="LineCollection_2">
    <path clip-path="url(#p91224647ce)" d="M 166.486962 20.138526 
L 178.122941 20.138526 
" style="fill:none;stroke:#0000ff;stroke-width:0.2;"/>
   </g>
   <g id="LineCollection_3">
    <path clip-path="url(#p91224647ce)" d="M 207.212886 20.138526 
L 218.848865 20.138526 
" style="fill:none;stroke:#0000ff;stroke-width:0.2;"/>
   </g>
   <g id="line2d_1">
    <path clip-path="url(#p91224647ce)" d="M 125.761038 8.502548 
L 137.397016 8.502548 
" style="fill:none;stroke:#0000ff;stroke-linecap:square;stroke-width:0.5;"/>
   </g>
   <g id="line2d_2">
    <path clip-path="url(#p91224647ce)" d="M 137.397016 8.502548 
L 137.397016 31.774505 
" style="fill:none;stroke:#0000ff;stroke-linecap:square;stroke-width:0.5;"/>
   </g>
   <g id="line2d_3">
    <path clip-path="url(#p91224647ce)" d="M 137.397016 31.774505 
L 125.761038 31.774505 
" style="fill:none;stroke:#0000ff;stroke-linecap:square;stroke-width:0.5;"/>
   </g>
   <g id="line2d_4">
    <path clip-path="url(#p91224647ce)" d="M 125.761038 31.774505 
L 125.761038 8.502548 
" style="fill:none;stroke:#0000ff;stroke-linecap:square;stroke-width:0.5;"/>
   </g>
   <g id="line2d_5">
    <path clip-path="url(#p91224647ce)" d="M 127.215535 46.319478 
" style="fill:none;stroke:#1f77b4;stroke-linecap:square;stroke-opacity:0;stroke-width:1.5;"/>
   </g>
   <g id="line2d_6">
    <path clip-path="url(#p91224647ce)" d="M 166.486962 8.502548 
L 178.122941 8.502548 
" style="fill:none;stroke:#0000ff;stroke-linecap:square;stroke-width:0.5;"/>
   </g>
   <g id="line2d_7">
    <path clip-path="url(#p91224647ce)" d="M 178.122941 8.502548 
L 178.122941 31.774505 
" style="fill:none;stroke:#0000ff;stroke-linecap:square;stroke-width:0.5;"/>
   </g>
   <g id="line2d_8">
    <path clip-path="url(#p91224647ce)" d="M 178.122941 31.774505 
L 166.486962 31.774505 
" style="fill:none;stroke:#0000ff;stroke-linecap:square;stroke-width:0.5;"/>
   </g>
   <g id="line2d_9">
    <path clip-path="url(#p91224647ce)" d="M 166.486962 31.774505 
L 166.486962 8.502548 
" style="fill:none;stroke:#0000ff;stroke-linecap:square;stroke-width:0.5;"/>
   </g>
   <g id="line2d_10">
    <path clip-path="url(#p91224647ce)" d="M 167.941459 46.319478 
" style="fill:none;stroke:#ff7f0e;stroke-linecap:square;stroke-opacity:0;stroke-width:1.5;"/>
   </g>
   <g id="line2d_11">
    <path clip-path="url(#p91224647ce)" d="M 207.212886 8.502548 
L 218.848865 8.502548 
" style="fill:none;stroke:#0000ff;stroke-linecap:square;stroke-width:0.5;"/>
   </g>
   <g id="line2d_12">
    <path clip-path="url(#p91224647ce)" d="M 218.848865 8.502548 
L 218.848865 31.774505 
" style="fill:none;stroke:#0000ff;stroke-linecap:square;stroke-width:0.5;"/>
   </g>
   <g id="line2d_13">
    <path clip-path="url(#p91224647ce)" d="M 218.848865 31.774505 
L 207.212886 31.774505 
" style="fill:none;stroke:#0000ff;stroke-linecap:square;stroke-width:0.5;"/>
   </g>
   <g id="line2d_14">
    <path clip-path="url(#p91224647ce)" d="M 207.212886 31.774505 
L 207.212886 8.502548 
" style="fill:none;stroke:#0000ff;stroke-linecap:square;stroke-width:0.5;"/>
   </g>
   <g id="line2d_15">
    <path clip-path="url(#p91224647ce)" d="M 208.667384 46.319478 
" style="fill:none;stroke:#2ca02c;stroke-linecap:square;stroke-opacity:0;stroke-width:1.5;"/>
   </g>
   <g id="text_1">
    <!-- $\psi_0$ -->
    <g transform="translate(127.215535 44.219478)scale(0.1 -0.1)">
     <defs>
      <path d="M 24.859375 -1.21875 
Q 13.921875 0.59375 9.625 5.328125 
Q 4.34375 11.140625 6.640625 23 
L 12.796875 54.6875 
L 21.875 54.6875 
L 15.765625 23.34375 
Q 14.0625 14.40625 17.484375 10.6875 
Q 20.515625 7.46875 26.421875 6.78125 
L 35.6875 54.6875 
L 44.625 54.6875 
L 35.359375 6.84375 
Q 41.890625 7.515625 45.75 10.75 
Q 50.734375 14.84375 52.390625 23.390625 
L 58.453125 54.6875 
L 67.53125 54.6875 
L 61.375 23.046875 
Q 58.984375 10.75 51.5625 5.375 
Q 44.875 0.53125 33.796875 -1.171875 
L 29.984375 -20.796875 
L 21.046875 -20.796875 
z
" id="DejaVuSans-Oblique-968"/>
      <path d="M 31.78125 66.40625 
Q 24.171875 66.40625 20.328125 58.90625 
Q 16.5 51.421875 16.5 36.375 
Q 16.5 21.390625 20.328125 13.890625 
Q 24.171875 6.390625 31.78125 6.390625 
Q 39.453125 6.390625 43.28125 13.890625 
Q 47.125 21.390625 47.125 36.375 
Q 47.125 51.421875 43.28125 58.90625 
Q 39.453125 66.40625 31.78125 66.40625 
z
M 31.78125 74.21875 
Q 44.046875 74.21875 50.515625 64.515625 
Q 56.984375 54.828125 56.984375 36.375 
Q 56.984375 17.96875 50.515625 8.265625 
Q 44.046875 -1.421875 31.78125 -1.421875 
Q 19.53125 -1.421875 13.0625 8.265625 
Q 6.59375 17.96875 6.59375 36.375 
Q 6.59375 54.828125 13.0625 64.515625 
Q 19.53125 74.21875 31.78125 74.21875 
z
" id="DejaVuSans-48"/>
     </defs>
     <use transform="translate(0 0.3125)" xlink:href="#DejaVuSans-Oblique-968"/>
     <use transform="translate(65.966797 -16.09375)scale(0.7)" xlink:href="#DejaVuSans-48"/>
    </g>
   </g>
   <g id="text_2">
    <!-- $\psi_M$ -->
    <g transform="translate(208.667384 44.219478)scale(0.1 -0.1)">
     <defs>
      <path d="M 16.890625 72.90625 
L 31.6875 72.90625 
L 40.1875 23.78125 
L 68.40625 72.90625 
L 83.59375 72.90625 
L 69.390625 0 
L 59.8125 0 
L 72.21875 63.921875 
L 43.609375 14.015625 
L 33.984375 14.015625 
L 24.703125 64.109375 
L 12.3125 0 
L 2.6875 0 
z
" id="DejaVuSans-Oblique-77"/>
     </defs>
     <use transform="translate(0 0.3125)" xlink:href="#DejaVuSans-Oblique-968"/>
     <use transform="translate(65.966797 -16.09375)scale(0.7)" xlink:href="#DejaVuSans-Oblique-77"/>
    </g>
   </g>
   <g id="PolyCollection_1">
    <defs>
     <path d="M 137.397016 -40.776976 
L 137.397016 -40.776976 
L 137.385063 -41.149736 
L 137.349251 -41.520964 
L 137.289728 -41.889135 
L 137.206738 -42.252736 
L 137.100623 -42.610272 
L 136.971819 -42.960276 
L 136.820854 -43.301307 
L 136.64835 -43.631966 
L 136.455015 -43.950892 
L 136.241643 -44.256777 
L 136.009111 -44.548362 
L 135.758376 -44.82445 
L 135.490466 -45.083906 
L 135.206484 -45.325663 
L 134.907596 -45.54873 
L 134.595029 -45.752188 
L 134.27007 -45.935201 
L 133.934052 -46.097019 
L 133.588357 -46.236975 
L 133.234405 -46.354495 
L 132.873651 -46.449096 
L 132.507577 -46.520389 
L 132.137688 -46.568081 
L 131.765503 -46.591976 
L 131.392551 -46.591976 
L 131.020366 -46.568081 
L 130.650477 -46.520389 
L 130.284403 -46.449096 
L 129.923649 -46.354495 
L 129.569697 -46.236975 
L 129.224002 -46.097019 
L 128.887984 -45.935201 
L 128.563025 -45.752188 
L 128.250458 -45.54873 
L 127.95157 -45.325663 
L 127.667588 -45.083906 
L 127.399678 -44.82445 
L 127.148943 -44.548362 
L 126.916411 -44.256777 
L 126.703039 -43.950892 
L 126.509704 -43.631966 
L 126.3372 -43.301307 
L 126.186235 -42.960276 
L 126.057431 -42.610272 
L 125.951316 -42.252736 
L 125.868326 -41.889135 
L 125.808803 -41.520964 
L 125.772992 -41.149736 
L 125.761038 -40.776976 
L 125.761038 -40.776976 
L 125.761038 -40.776976 
L 125.772992 -40.404216 
L 125.808803 -40.032988 
L 125.868326 -39.664817 
L 125.951316 -39.301217 
L 126.057431 -38.94368 
L 126.186235 -38.593677 
L 126.3372 -38.252645 
L 126.509704 -37.921987 
L 126.703039 -37.60306 
L 126.916411 -37.297176 
L 127.148943 -37.00559 
L 127.399678 -36.729503 
L 127.667588 -36.470047 
L 127.95157 -36.228289 
L 128.250458 -36.005223 
L 128.563025 -35.801765 
L 128.887984 -35.618751 
L 129.224002 -35.456933 
L 129.569697 -35.316977 
L 129.923649 -35.199457 
L 130.284403 -35.104856 
L 130.650477 -35.033563 
L 131.020366 -34.985871 
L 131.392551 -34.961976 
L 131.765503 -34.961976 
L 132.137688 -34.985871 
L 132.507577 -35.033563 
L 132.873651 -35.104856 
L 133.234405 -35.199457 
L 133.588357 -35.316977 
L 133.934052 -35.456933 
L 134.27007 -35.618751 
L 134.595029 -35.801765 
L 134.907596 -36.005223 
L 135.206484 -36.228289 
L 135.490466 -36.470047 
L 135.758376 -36.729503 
L 136.009111 -37.00559 
L 136.241643 -37.297176 
L 136.455015 -37.60306 
L 136.64835 -37.921987 
L 136.820854 -38.252645 
L 136.971819 -38.593677 
L 137.100623 -38.94368 
L 137.206738 -39.301217 
L 137.289728 -39.664817 
L 137.349251 -40.032988 
L 137.385063 -40.404216 
L 137.397016 -40.776976 
z
" id="mfb52144e76" style="stroke:#000000;stroke-opacity:0.8;"/>
    </defs>
    <g clip-path="url(#p91224647ce)">
     <use style="fill:#2f1436;fill-opacity:0.8;stroke:#000000;stroke-opacity:0.8;" x="0" xlink:href="#mfb52144e76" y="55.097514"/>
    </g>
   </g>
   <g id="PolyCollection_2">
    <defs>
     <path d="M 176.418891 -40.776976 
L 176.418891 -40.776976 
L 176.410438 -41.040557 
L 176.385116 -41.303055 
L 176.343026 -41.563391 
L 176.284344 -41.820496 
L 176.209309 -42.073312 
L 176.118231 -42.320802 
L 176.011483 -42.561948 
L 175.889504 -42.795759 
L 175.752795 -43.021274 
L 175.601919 -43.237567 
L 175.437494 -43.443749 
L 175.260197 -43.638972 
L 175.070757 -43.822435 
L 174.869951 -43.993384 
L 174.658605 -44.151115 
L 174.437587 -44.294982 
L 174.207806 -44.424392 
L 173.970206 -44.538814 
L 173.725762 -44.637779 
L 173.475481 -44.720878 
L 173.220389 -44.787771 
L 172.961536 -44.838182 
L 172.699984 -44.871906 
L 172.43681 -44.888802 
L 172.173093 -44.888802 
L 171.909918 -44.871906 
L 171.648367 -44.838182 
L 171.389514 -44.787771 
L 171.134422 -44.720878 
L 170.88414 -44.637779 
L 170.639697 -44.538814 
L 170.402097 -44.424392 
L 170.172316 -44.294982 
L 169.951298 -44.151115 
L 169.739952 -43.993384 
L 169.539146 -43.822435 
L 169.349706 -43.638972 
L 169.172409 -43.443749 
L 169.007984 -43.237567 
L 168.857108 -43.021274 
L 168.720399 -42.795759 
L 168.59842 -42.561948 
L 168.491672 -42.320802 
L 168.400593 -42.073312 
L 168.325559 -41.820496 
L 168.266876 -41.563391 
L 168.224787 -41.303055 
L 168.199464 -41.040557 
L 168.191012 -40.776976 
L 168.191012 -40.776976 
L 168.191012 -40.776976 
L 168.199464 -40.513395 
L 168.224787 -40.250897 
L 168.266876 -39.990561 
L 168.325559 -39.733457 
L 168.400593 -39.48064 
L 168.491672 -39.23315 
L 168.59842 -38.992005 
L 168.720399 -38.758194 
L 168.857108 -38.532679 
L 169.007984 -38.316386 
L 169.172409 -38.110204 
L 169.349706 -37.91498 
L 169.539146 -37.731517 
L 169.739952 -37.560569 
L 169.951298 -37.402837 
L 170.172316 -37.258971 
L 170.402097 -37.12956 
L 170.639697 -37.015138 
L 170.88414 -36.916174 
L 171.134422 -36.833075 
L 171.389514 -36.766182 
L 171.648367 -36.71577 
L 171.909918 -36.682047 
L 172.173093 -36.66515 
L 172.43681 -36.66515 
L 172.699984 -36.682047 
L 172.961536 -36.71577 
L 173.220389 -36.766182 
L 173.475481 -36.833075 
L 173.725762 -36.916174 
L 173.970206 -37.015138 
L 174.207806 -37.12956 
L 174.437587 -37.258971 
L 174.658605 -37.402837 
L 174.869951 -37.560569 
L 175.070757 -37.731517 
L 175.260197 -37.91498 
L 175.437494 -38.110204 
L 175.601919 -38.316386 
L 175.752795 -38.532679 
L 175.889504 -38.758194 
L 176.011483 -38.992005 
L 176.118231 -39.23315 
L 176.209309 -39.48064 
L 176.284344 -39.733457 
L 176.343026 -39.990561 
L 176.385116 -40.250897 
L 176.410438 -40.513395 
L 176.418891 -40.776976 
z
" id="m848de22feb" style="stroke:#000000;stroke-opacity:0.8;stroke-width:0.707107;"/>
    </defs>
    <g clip-path="url(#p91224647ce)">
     <use style="fill:#2f1436;fill-opacity:0.8;stroke:#000000;stroke-opacity:0.8;stroke-width:0.707107;" x="0" xlink:href="#m848de22feb" y="55.097514"/>
    </g>
   </g>
   <g id="PolyCollection_3">
    <defs>
     <path d="M 176.418891 -29.140998 
L 176.418891 -29.140998 
L 176.410438 -29.404579 
L 176.385116 -29.667077 
L 176.343026 -29.927413 
L 176.284344 -30.184517 
L 176.209309 -30.437334 
L 176.118231 -30.684824 
L 176.011483 -30.925969 
L 175.889504 -31.15978 
L 175.752795 -31.385295 
L 175.601919 -31.601588 
L 175.437494 -31.80777 
L 175.260197 -32.002994 
L 175.070757 -32.186457 
L 174.869951 -32.357405 
L 174.658605 -32.515137 
L 174.437587 -32.659003 
L 174.207806 -32.788414 
L 173.970206 -32.902836 
L 173.725762 -33.0018 
L 173.475481 -33.084899 
L 173.220389 -33.151792 
L 172.961536 -33.202204 
L 172.699984 -33.235927 
L 172.43681 -33.252824 
L 172.173093 -33.252824 
L 171.909918 -33.235927 
L 171.648367 -33.202204 
L 171.389514 -33.151792 
L 171.134422 -33.084899 
L 170.88414 -33.0018 
L 170.639697 -32.902836 
L 170.402097 -32.788414 
L 170.172316 -32.659003 
L 169.951298 -32.515137 
L 169.739952 -32.357405 
L 169.539146 -32.186457 
L 169.349706 -32.002994 
L 169.172409 -31.80777 
L 169.007984 -31.601588 
L 168.857108 -31.385295 
L 168.720399 -31.15978 
L 168.59842 -30.925969 
L 168.491672 -30.684824 
L 168.400593 -30.437334 
L 168.325559 -30.184517 
L 168.266876 -29.927413 
L 168.224787 -29.667077 
L 168.199464 -29.404579 
L 168.191012 -29.140998 
L 168.191012 -29.140998 
L 168.191012 -29.140998 
L 168.199464 -28.877417 
L 168.224787 -28.614919 
L 168.266876 -28.354583 
L 168.325559 -28.097478 
L 168.400593 -27.844662 
L 168.491672 -27.597172 
L 168.59842 -27.356026 
L 168.720399 -27.122215 
L 168.857108 -26.8967 
L 169.007984 -26.680407 
L 169.172409 -26.474225 
L 169.349706 -26.279002 
L 169.539146 -26.095539 
L 169.739952 -25.92459 
L 169.951298 -25.766859 
L 170.172316 -25.622992 
L 170.402097 -25.493582 
L 170.639697 -25.37916 
L 170.88414 -25.280195 
L 171.134422 -25.197096 
L 171.389514 -25.130203 
L 171.648367 -25.079792 
L 171.909918 -25.046068 
L 172.173093 -25.029172 
L 172.43681 -25.029172 
L 172.699984 -25.046068 
L 172.961536 -25.079792 
L 173.220389 -25.130203 
L 173.475481 -25.197096 
L 173.725762 -25.280195 
L 173.970206 -25.37916 
L 174.207806 -25.493582 
L 174.437587 -25.622992 
L 174.658605 -25.766859 
L 174.869951 -25.92459 
L 175.070757 -26.095539 
L 175.260197 -26.279002 
L 175.437494 -26.474225 
L 175.601919 -26.680407 
L 175.752795 -26.8967 
L 175.889504 -27.122215 
L 176.011483 -27.356026 
L 176.118231 -27.597172 
L 176.209309 -27.844662 
L 176.284344 -28.097478 
L 176.343026 -28.354583 
L 176.385116 -28.614919 
L 176.410438 -28.877417 
L 176.418891 -29.140998 
z
" id="m9b5a697a5d" style="stroke:#000000;stroke-opacity:0.8;stroke-width:0.707107;"/>
    </defs>
    <g clip-path="url(#p91224647ce)">
     <use style="fill:#2f1436;fill-opacity:0.8;stroke:#000000;stroke-opacity:0.8;stroke-width:0.707107;" x="0" xlink:href="#m9b5a697a5d" y="55.097514"/>
    </g>
   </g>
   <g id="PolyCollection_4">
    <defs>
     <path d="M 218.848865 -29.140998 
L 218.848865 -29.140998 
L 218.836911 -29.513758 
L 218.801099 -29.884986 
L 218.741576 -30.253157 
L 218.658586 -30.616757 
L 218.552471 -30.974294 
L 218.423667 -31.324297 
L 218.272702 -31.665329 
L 218.100198 -31.995987 
L 217.906863 -32.314914 
L 217.693491 -32.620798 
L 217.46096 -32.912383 
L 217.210224 -33.188471 
L 216.942315 -33.447927 
L 216.658332 -33.689685 
L 216.359444 -33.912751 
L 216.046878 -34.116209 
L 215.721918 -34.299223 
L 215.385901 -34.46104 
L 215.040206 -34.600997 
L 214.686254 -34.718517 
L 214.3255 -34.813118 
L 213.959426 -34.88441 
L 213.589537 -34.932102 
L 213.217351 -34.955997 
L 212.8444 -34.955997 
L 212.472215 -34.932102 
L 212.102325 -34.88441 
L 211.736251 -34.813118 
L 211.375497 -34.718517 
L 211.021546 -34.600997 
L 210.675851 -34.46104 
L 210.339833 -34.299223 
L 210.014873 -34.116209 
L 209.702307 -33.912751 
L 209.403419 -33.689685 
L 209.119437 -33.447927 
L 208.851527 -33.188471 
L 208.600792 -32.912383 
L 208.36826 -32.620798 
L 208.154888 -32.314914 
L 207.961553 -31.995987 
L 207.789049 -31.665329 
L 207.638084 -31.324297 
L 207.50928 -30.974294 
L 207.403165 -30.616757 
L 207.320175 -30.253157 
L 207.260652 -29.884986 
L 207.224841 -29.513758 
L 207.212887 -29.140998 
L 207.212887 -29.140998 
L 207.212887 -29.140998 
L 207.224841 -28.768238 
L 207.260652 -28.39701 
L 207.320175 -28.028839 
L 207.403165 -27.665238 
L 207.50928 -27.307702 
L 207.638084 -26.957699 
L 207.789049 -26.616667 
L 207.961553 -26.286009 
L 208.154888 -25.967082 
L 208.36826 -25.661197 
L 208.600792 -25.369612 
L 208.851527 -25.093525 
L 209.119437 -24.834069 
L 209.403419 -24.592311 
L 209.702307 -24.369245 
L 210.014873 -24.165787 
L 210.339833 -23.982773 
L 210.675851 -23.820955 
L 211.021546 -23.680999 
L 211.375497 -23.563479 
L 211.736251 -23.468878 
L 212.102325 -23.397585 
L 212.472215 -23.349893 
L 212.8444 -23.325998 
L 213.217351 -23.325998 
L 213.589537 -23.349893 
L 213.959426 -23.397585 
L 214.3255 -23.468878 
L 214.686254 -23.563479 
L 215.040206 -23.680999 
L 215.385901 -23.820955 
L 215.721918 -23.982773 
L 216.046878 -24.165787 
L 216.359444 -24.369245 
L 216.658332 -24.592311 
L 216.942315 -24.834069 
L 217.210224 -25.093525 
L 217.46096 -25.369612 
L 217.693491 -25.661197 
L 217.906863 -25.967082 
L 218.100198 -26.286009 
L 218.272702 -26.616667 
L 218.423667 -26.957699 
L 218.552471 -27.307702 
L 218.658586 -27.665238 
L 218.741576 -28.028839 
L 218.801099 -28.39701 
L 218.836911 -28.768238 
L 218.848865 -29.140998 
z
" id="meb75460213" style="stroke:#000000;stroke-opacity:0.8;stroke-width:1;"/>
    </defs>
    <g clip-path="url(#p91224647ce)">
     <use style="fill:#2f1436;fill-opacity:0.8;stroke:#000000;stroke-opacity:0.8;stroke-width:1;" x="0" xlink:href="#meb75460213" y="55.097514"/>
    </g>
   </g>
   <g id="line2d_16">
    <path clip-path="url(#p91224647ce)" d="M 131.579027 14.320537 
L 137.397016 14.320537 
" style="fill:none;stroke:#000000;stroke-linecap:square;"/>
   </g>
   <g id="line2d_17">
    <path clip-path="url(#p91224647ce)" d="M 172.304951 14.320537 
L 176.418891 14.320537 
" style="fill:none;stroke:#000000;stroke-linecap:square;stroke-width:0.707107;"/>
   </g>
   <g id="line2d_18">
    <path clip-path="url(#p91224647ce)" d="M 172.304951 25.956516 
L 176.418891 25.956516 
" style="fill:none;stroke:#000000;stroke-linecap:square;stroke-width:0.707107;"/>
   </g>
   <g id="line2d_19">
    <path clip-path="url(#p91224647ce)" d="M 213.030876 25.956516 
L 218.848865 25.956516 
" style="fill:none;stroke:#000000;stroke-linecap:square;stroke-width:1;"/>
   </g>
  </g>
 </g>
 <defs>
  <clipPath id="p91224647ce">
   <rect height="41.598623" width="215.2656" x="38.4912" y="6.611702"/>
  </clipPath>
 </defs>
</svg>
